<svg xmlns="http://www.w3.org/2000/svg" width="29.264" height="8.313" viewBox="0 0 29.264 8.313">
  <title>RefCafe_logo</title>
  <g>
    <rect x="27.877" y="6.806" width="1.387" height="1.387" rx="0.198" ry="0.198"/>
    <path d="M20.588,1.505a.2.2,0,0,0,.2-.2V.317a.2.2,0,0,0-.2-.2H16.477a.2.2,0,0,0-.2.2V8a.2.2,0,0,0,.2.2h.991a.2.2,0,0,0,.2-.2V5.369h.992a.2.2,0,0,0,.165-.089l.652-.991a.2.2,0,0,0-.165-.307H17.665V1.505Z"/>
    <path d="M26.3.119H22.192a.2.2,0,0,0-.2.2V8a.2.2,0,0,0,.2.2H26.3a.2.2,0,0,0,.2-.2V7a.2.2,0,0,0-.2-.2H23.381V5.369h1a.2.2,0,0,0,.165-.089l.651-.991a.2.2,0,0,0-.165-.307H23.381V1.505H26.3a.2.2,0,0,0,.2-.2V.317A.2.2,0,0,0,26.3.119Z"/>
    <g>
      <path d="M4.195,8.313A4.092,4.092,0,0,1,0,4.157,4.092,4.092,0,0,1,4.195,0,3.9,3.9,0,0,1,7.856,2.386a.134.134,0,0,1-.138.2H7.409a.214.214,0,0,1-.206-.13A3.253,3.253,0,0,0,4.195.59,3.485,3.485,0,0,0,.614,4.156,3.485,3.485,0,0,0,4.195,7.722,3.249,3.249,0,0,0,7.2,5.858a.213.213,0,0,1,.206-.13h.313c.122,0,.189.077.146.181a3.906,3.906,0,0,1-3.673,2.4Z"/>
      <path d="M15.068,7.984c.044.121-.008.2-.138.2h-.286a.2.2,0,0,1-.2-.138l-.734-1.914H9.685L8.952,8.045a.2.2,0,0,1-.2.138H8.467c-.129,0-.181-.078-.138-.2l3-7.716a.2.2,0,0,1,.2-.138h.351a.2.2,0,0,1,.2.138l3,7.716ZM13.492,5.556,11.7.878,9.905,5.556Z"/>
    </g>
  </g>
</svg>
