<svg xmlns="http://www.w3.org/2000/svg" width="47.05" height="8.367" viewBox="0 0 47.05 8.367">
  <title>RefGarden_logo</title>
  <g>
    <rect x="45.655" y="6.84" width="1.396" height="1.396" rx="0.199" ry="0.199"/>
    <path d="M20.505,5.31A2.643,2.643,0,0,0,19.7.15H17.258a.2.2,0,0,0-.2.2v7.73a.2.2,0,0,0,.2.2h1a.2.2,0,0,0,.2-.2V1.546H19.7a1.246,1.246,0,0,1,1.245,1.318,1.287,1.287,0,0,1-1.263,1.175h-.08a.2.2,0,0,0-.166.09l-.715,1.087a.2.2,0,0,0,.02.245l2.542,2.753a.2.2,0,0,0,.146.064h1.355a.2.2,0,0,0,.149-.334Z"/>
    <path d="M37.316.15H33.178a.2.2,0,0,0-.2.2V8.078a.2.2,0,0,0,.2.2h4.139a.2.2,0,0,0,.2-.2v-1a.2.2,0,0,0-.2-.2H34.374V5.435H35.38a.2.2,0,0,0,.166-.09l.656-1a.2.2,0,0,0-.166-.309H34.374V1.546h2.942a.2.2,0,0,0,.2-.2v-1A.2.2,0,0,0,37.316.15Z"/>
    <g>
      <path d="M7.769,4.242a.156.156,0,0,1,.174.174V8.062a.156.156,0,0,1-.174.174H7.5a.156.156,0,0,1-.174-.174V6.807a3.451,3.451,0,0,1-3.1,1.56A4.11,4.11,0,0,1,0,4.184,4.11,4.11,0,0,1,4.184,0,3.922,3.922,0,0,1,7.868,2.4a.134.134,0,0,1-.139.2H7.418a.215.215,0,0,1-.207-.131A3.274,3.274,0,0,0,4.184.594,3.5,3.5,0,0,0,.618,4.183a3.5,3.5,0,0,0,3.6,3.589c1.594,0,3.03-.865,3.1-2.509V4.82h-2.8a.156.156,0,0,1-.174-.174V4.415a.156.156,0,0,1,.174-.174H7.769Z"/>
      <path d="M15.791,8.036c.044.122-.008.2-.139.2h-.288a.2.2,0,0,1-.2-.139l-.738-1.926H10.373L9.635,8.1a.2.2,0,0,1-.2.139H9.148c-.13,0-.183-.078-.139-.2L12.024.27a.2.2,0,0,1,.2-.139h.353a.2.2,0,0,1,.2.139l3.015,7.766ZM14.2,5.592,12.4.884,10.6,5.592Z"/>
      <path d="M31.4,4.183a3.865,3.865,0,0,1-3.821,4.052H24.476a.157.157,0,0,1-.174-.174V.3a.157.157,0,0,1,.174-.174h3.107A3.865,3.865,0,0,1,31.4,4.183Zm-.6,0A3.27,3.27,0,0,0,27.583.71H24.92V7.657h2.663A3.27,3.27,0,0,0,30.8,4.183Z"/>
      <path d="M43.815.131h.27A.156.156,0,0,1,44.259.3V8.062a.156.156,0,0,1-.174.174h-.228a.218.218,0,0,1-.208-.113l-4.06-6.764v6.7a.156.156,0,0,1-.174.174h-.27a.156.156,0,0,1-.174-.174V.3a.156.156,0,0,1,.174-.174h.228a.218.218,0,0,1,.208.113l4.06,6.764V.3A.156.156,0,0,1,43.815.131Z"/>
    </g>
  </g>
</svg>
