<svg xmlns="http://www.w3.org/2000/svg" width="24.938" height="48.181" viewBox="0 0 24.938 48.181">
  <title>ref_logo</title>
  <g>
    <path d="M15.509,22.529a.113.113,0,0,0,.058-.069c.027-.093.052-.187.074-.282a.229.229,0,0,0,0-.046c0-.026,0-.051,0-.072-.014-.2,0-.17-.15-.3-.02-.017-.04-.032-.061-.049a.269.269,0,0,0-.1-.048c-.089-.022-.178-.044-.268-.07a.217.217,0,0,0-.061-.009c-.113,0-.225,0-.338,0a.3.3,0,0,0-.091.015l-.324.1a.294.294,0,0,0-.108.056,3.351,3.351,0,0,0-.388.351c-.013.016-.028.03-.043.045a.8.8,0,0,0-.135.168l-.042.065a.879.879,0,0,0-.159.331l0,.014a.083.083,0,0,0,.006.06c.039.078.045.082.118.112l.029.01a.076.076,0,0,0,.06-.01.2.2,0,0,0,.035-.028.5.5,0,0,1,.2-.12c.072-.024.143-.054.215-.083a.274.274,0,0,1,.12-.021c.118,0,.236.006.354.013.061,0,.123.013.184.019l.091.012a.9.9,0,0,0,.321-.015.841.841,0,0,0,.307-.1c.032-.017.065-.03.1-.046"/>
    <path d="M18.39,26.484c0-.015-.008-.031-.013-.043-.031-.117-.065-.23-.091-.344a1.122,1.122,0,0,0-.088-.247q-.226-.465-.452-.929a1.072,1.072,0,0,0-.075-.135c-.176-.26-.352-.521-.529-.781a.26.26,0,0,0-.048-.059.059.059,0,0,0-.043-.006l-.013,0-.773.394-.617.314c-.409.21-.815.417-1.224.625-.455.23-.907.462-1.362.694l-.578.295a.257.257,0,0,1-.159.044.078.078,0,0,0-.028.009,1.916,1.916,0,0,0-.289.147c-.011.009-.026.015-.039.024a.137.137,0,0,1-.087.023l-.108,0h-3l-.124,0a.2.2,0,0,1-.075-.012.456.456,0,0,0-.169-.028L8.2,26.464a.414.414,0,0,1-.077-.007,1.018,1.018,0,0,0-.169-.021.46.46,0,0,1-.076-.011.665.665,0,0,0-.184-.02H7.46a.293.293,0,0,1-.1-.02.146.146,0,0,0-.061-.011c-.051,0-.1,0-.154,0H6.925a.246.246,0,0,1-.089-.018.167.167,0,0,0-.077-.015H6.606c-.079,0-.156,0-.232,0a.175.175,0,0,1-.075-.016.223.223,0,0,0-.044-.013.3.3,0,0,0-.109,0,.07.07,0,0,0-.027.013.129.129,0,0,0-.043.079.205.205,0,0,1-.028.134.08.08,0,0,0,0,.031.086.086,0,0,0,.039.043c.061.028.124.051.187.077a.334.334,0,0,1,.085.031.49.49,0,0,1,.1.035,1.1,1.1,0,0,1,.132.042.41.41,0,0,1,.072.024c.021.014.052.007.071.02.051.028.112.024.161.057a.2.2,0,0,1,.085.028.353.353,0,0,1,.1.037c.028.009.058.015.087.026a.634.634,0,0,0,.086.035.338.338,0,0,1,.085.035c.028.013.061.012.09.024a.175.175,0,0,0,.072.024c.033,0,.057.024.087.029a.294.294,0,0,1,.117.034.272.272,0,0,1,.117.035.249.249,0,0,1,.1.031.077.077,0,0,0,.031,0c.013,0,.03,0,.044.012.047.028.111.024.157.056a.346.346,0,0,1,.1.038.077.077,0,0,0,.031.009.175.175,0,0,1,.044.009c.05.028.106.037.157.061a.359.359,0,0,0,.1.033.079.079,0,0,1,.026.013.15.15,0,0,0,.059.016.127.127,0,0,1,.058.019.164.164,0,0,0,.06.016.113.113,0,0,1,.043.01.173.173,0,0,0,.072.025c.033,0,.057.026.085.032a.469.469,0,0,1,.1.031c.038.017.084.009.119.037l.043.009a.135.135,0,0,1,.059.02.086.086,0,0,0,.043.013.136.136,0,0,1,.057.02.069.069,0,0,0,.028.01.526.526,0,0,1,.116.038,1.514,1.514,0,0,0,.217.079.2.2,0,0,0,.087.028c.031,0,.054.028.085.031a.288.288,0,0,1,.1.032.068.068,0,0,0,.031,0,.18.18,0,0,1,.057.017.088.088,0,0,0,.043.016.178.178,0,0,1,.088.026c.019.011.041,0,.061.011a.588.588,0,0,0,.132.039.2.2,0,0,0,.087.028.189.189,0,0,1,.042.017.124.124,0,0,0,.057.022.158.158,0,0,1,.043.01.268.268,0,0,0,.085.033c.035.013.066.031.1.046a.084.084,0,0,0,.028.009c.055,0,.094.046.149.039.017.009.038.016.057.025a.33.33,0,0,0,.059.008.737.737,0,0,0,.072.029.267.267,0,0,1,.087.026.092.092,0,0,0,.043.01.133.133,0,0,1,.059.018.136.136,0,0,0,.059.017.1.1,0,0,1,.044.013.682.682,0,0,0,.1.032.741.741,0,0,0,.1.033c.024,0,.046.024.07.028a.2.2,0,0,1,.087.028c.026.016.059.013.087.028a.363.363,0,0,0,.144.048c.048.035.112.024.16.057,0,0,.011,0,.016,0a.07.07,0,0,0,.028-.008.069.069,0,0,1,.058,0l.747.243.736.236c.213.07.431.14.644.208.109.035.217.068.321.109.049.035.086.016.127-.013.068-.046.138-.089.208-.133.192-.121.384-.239.577-.358.317-.2.636-.4.955-.6s.636-.4.955-.6a.916.916,0,0,0,.146-.113c.059-.057.121-.112.179-.169.11-.1.22-.206.326-.309a.117.117,0,0,0,.042-.08c.011-.112.033-.224.033-.326,0-.032,0-.053.006-.072a.466.466,0,0,0-.013-.184m-.577.208c-.024.079-.049.154-.077.234a.253.253,0,0,1-.032.068.892.892,0,0,1-.053.078,1.585,1.585,0,0,1-.122.178c-.079.058-.158.115-.241.166a.047.047,0,0,1-.054-.018c0-.009-.011-.017-.016-.026-.013-.028-.024-.057-.037-.085-.046-.109-.091-.218-.139-.326a.277.277,0,0,0-.031-.055c-.006-.008-.034-.006-.041,0s-.015.027-.022.039q-.2.436-.4.873a.106.106,0,0,1-.026.037.028.028,0,0,1-.039,0c-.013-.017-.024-.033-.034-.05-.093-.15-.182-.3-.274-.447-.011-.018-.024-.035-.035-.051s-.046-.013-.053,0c-.017.033-.035.064-.05.1-.122.25-.243.5-.363.75a.321.321,0,0,1-.043.081c-.009.009-.037.012-.041,0a.606.606,0,0,1-.04-.065q-.105-.239-.214-.479a.5.5,0,0,0-.035-.068c-.005-.011-.032-.009-.039,0s-.013.018-.018.027c-.138.3-.273.6-.41.9-.007.013-.016.027-.022.039a.026.026,0,0,1-.039,0,.174.174,0,0,1-.029-.035c-.113-.185-.223-.369-.336-.555a1.282,1.282,0,0,0-.1-.153c-.009-.011-.035-.016-.042-.006a.462.462,0,0,0-.033.035c-.058.083-.117.166-.179.251l-.2.273c-.027.035-.049.028-.075,0a.115.115,0,0,1-.02-.024c-.009-.013-.02-.024-.029-.037-.089-.119-.18-.239-.27-.356-.027-.033-.05-.066-.077-.1s-.048-.032-.079,0l-.158.169a.213.213,0,0,1-.056.054.033.033,0,0,1-.028,0l-.04-.026c-.042-.037-.083-.076-.124-.114a.168.168,0,0,0-.068-.037c-.028-.011-.058-.019-.087-.028-.117-.028-.23-.059-.344-.089a.064.064,0,0,1-.039-.023.109.109,0,0,0-.065-.037.15.15,0,0,1-.043-.013.11.11,0,0,0-.057-.018.194.194,0,0,1-.1-.024.126.126,0,0,0-.059-.011.107.107,0,0,1-.059-.015.1.1,0,0,0-.057-.02.18.18,0,0,1-.046-.009,1.77,1.77,0,0,0-.218-.072c-.006,0-.011,0-.016-.007a.2.2,0,0,0-.087-.021.115.115,0,0,1-.031,0c-.024-.006-.044-.026-.072-.028s-.05,0-.076-.009c0,0-.009,0-.011-.009s0-.013.015-.013.053,0,.077,0h.325v0h.385a.107.107,0,0,0,.059-.016c.026-.017.057-.022.08-.041a.153.153,0,0,0,.053-.055.1.1,0,0,1,.042-.046c.094-.061.19-.121.291-.172a.035.035,0,0,1,.031,0,.2.2,0,0,1,.05.035.666.666,0,0,0,.08.07c.011,0,.037,0,.044,0s.02-.024.028-.037c.049-.085.094-.171.143-.256a.212.212,0,0,1,.026-.039c.006-.009.031-.009.042,0a.149.149,0,0,1,.031.035q.222.315.446.63c.015.019.03.042.046.061a.045.045,0,0,0,.039.02.051.051,0,0,0,.033-.031.685.685,0,0,0,.037-.068c.072-.142.146-.282.219-.425.1-.2.208-.4.31-.6.013-.026.029-.053.044-.081a.032.032,0,0,1,.026-.013c.012,0,.023,0,.026.01s.028.046.038.068l.374.781a.291.291,0,0,0,.024.039.048.048,0,0,0,.024.016.036.036,0,0,0,.035-.024c0-.016.011-.032.016-.044.032-.094.063-.186.094-.278q.18-.535.358-1.069c.018-.052.033-.108.057-.16a.034.034,0,0,1,.024-.016.025.025,0,0,1,.024.016l.006.013c.037.108.076.215.111.322.064.179.125.361.187.54.013.035.021.068.035.1a.1.1,0,0,0,.017.024c.009.011.018.011.026,0a.091.091,0,0,0,.031-.052l.283-.768c.074-.2.148-.4.225-.607A.115.115,0,0,1,16.4,25.3a.024.024,0,0,1,.028,0l.011.009c.017.044.031.088.044.132.067.217.133.433.2.649a.144.144,0,0,0,.011.029c.007.006.013.017.022.02a.027.027,0,0,0,.027-.013c.008-.011.017-.027.024-.039.117-.245.236-.49.354-.737a.279.279,0,0,0,.016-.026.034.034,0,0,1,.053-.009c0,.009.013.018.017.026q.191.3.355.615a2.721,2.721,0,0,1,.142.325c.037.1.068.195.1.291a.157.157,0,0,1,.009.031.192.192,0,0,1,0,.092"/>
    <path d="M11.608,22.41a.072.072,0,0,0-.017-.026,1.389,1.389,0,0,1-.109-.167,1.293,1.293,0,0,1-.076-.117l-.076-.076c-.05-.051-.1-.1-.146-.158a.773.773,0,0,0-.147-.135.694.694,0,0,1-.1-.069l-.243-.164a.064.064,0,0,0-.029-.009.231.231,0,0,0-.046,0,.412.412,0,0,1-.164-.03c-.039-.012-.08-.016-.119-.031a.639.639,0,0,0-.087-.032c-.029-.007-.061-.009-.091-.014-.014,0-.028-.011-.042-.016a.053.053,0,0,0-.031,0c-.038.016-.079.02-.118.034a1.178,1.178,0,0,0-.113.048.457.457,0,0,0-.115.042.1.1,0,0,0-.061.043l-.13.191c-.009.029-.034.052-.039.083a.412.412,0,0,1-.051.128.759.759,0,0,1-.065.138.089.089,0,0,0-.006.1.453.453,0,0,1,.052.128.078.078,0,0,0,.025.037.575.575,0,0,0,.061.046,1.739,1.739,0,0,0,.206.1.51.51,0,0,0,.117.04.538.538,0,0,0,.107,0h.278c.036,0,.072,0,.108,0a.091.091,0,0,1,.044.009.234.234,0,0,0,.12.024.115.115,0,0,1,.06.015.146.146,0,0,0,.073.018.188.188,0,0,1,.118.027.8.8,0,0,1,.116.037c.046.01.081.045.129.046a1.443,1.443,0,0,1,.176.094,1.643,1.643,0,0,0,.212.125.128.128,0,0,0,.058.017h.086l.084,0a.047.047,0,0,0,.035-.027c.009-.019.015-.039.024-.057a.124.124,0,0,0,.016-.058v-.108a.121.121,0,0,0-.013-.06.158.158,0,0,1-.021-.073,1.378,1.378,0,0,0-.048-.146"/>
    <path d="M9.739,19.79a.364.364,0,0,0-.151.021.16.16,0,0,1-.061.01c-.046,0-.092,0-.138,0a.311.311,0,0,0-.151.024.12.12,0,0,1-.045.008c-.052,0-.1,0-.155,0s-.1.026-.151.027l-.016,0a.388.388,0,0,0-.043.012.739.739,0,0,0-.085.038A1.3,1.3,0,0,1,8.6,20a.991.991,0,0,0-.1.044c-.032.019-.068.021-.1.04a.725.725,0,0,1-.1.042.266.266,0,0,0-.079.047.379.379,0,0,0-.045.043c-.1.113-.2.217-.312.321a.252.252,0,0,0-.039.048c-.082.13-.158.264-.232.4-.024.044-.045.092-.065.139a.08.08,0,0,0-.008.029c0,.021,0,.042,0,.062a.121.121,0,0,1-.013.06.15.15,0,0,0-.023.072.444.444,0,0,1-.028.135c-.006.02-.009.04-.017.059a.325.325,0,0,0-.019.106c-.006.113,0,.226,0,.339a.1.1,0,0,0,0,.031,2.645,2.645,0,0,1,.05.273.116.116,0,0,0,.021.057.119.119,0,0,1,.017.025,1.613,1.613,0,0,0,.074.153c.036.079.076.156.113.235a.261.261,0,0,0,.1.116,2.761,2.761,0,0,1,.345.257.878.878,0,0,0,.291.169.154.154,0,0,0,.088.024.134.134,0,0,1,.06.014.155.155,0,0,0,.088.021.234.234,0,0,1,.12.024.1.1,0,0,0,.044.01c.036,0,.072,0,.108,0a.2.2,0,0,1,.1.023.053.053,0,0,0,.029.009.347.347,0,0,0,.2-.022.121.121,0,0,1,.046-.008c.02,0,.04,0,.061-.006a.063.063,0,0,0,.028-.011l.07-.061A.057.057,0,0,0,9.5,23.3a.12.12,0,0,0,0-.089s0-.012-.009-.013a.288.288,0,0,1-.095-.05.1.1,0,0,0-.071-.024.208.208,0,0,1-.1-.029c-.083-.043-.165-.083-.243-.132-.039-.024-.083-.041-.122-.065a.971.971,0,0,1-.173-.129c-.03-.028-.06-.056-.092-.081a.208.208,0,0,1-.094-.152l0-.015c-.035-.069-.042-.149-.083-.215a.4.4,0,0,0-.04-.116l0-.015a.178.178,0,0,0-.027-.087.057.057,0,0,1,0-.059.155.155,0,0,0,.025-.087v-.031a.145.145,0,0,1,.019-.073.134.134,0,0,0,.017-.059.245.245,0,0,1,.017-.075c.012-.028.02-.058.031-.087a.167.167,0,0,0,.014-.059c0-.015,0-.032,0-.046a.168.168,0,0,1,.044-.112,1.3,1.3,0,0,0,.106-.132.854.854,0,0,1,.06-.071c.05-.052.1-.106.143-.162.023-.028.049-.053.073-.08L9,20.9c.075-.033.147-.072.221-.109l.108-.057a.3.3,0,0,1,.163-.04.181.181,0,0,0,.1-.021.13.13,0,0,1,.061-.01l.154,0a.133.133,0,0,0,.06-.012.182.182,0,0,1,.089-.02h.417a.245.245,0,0,1,.12.021.1.1,0,0,0,.045.009c.061,0,.123,0,.185,0a.186.186,0,0,1,.117.028.45.45,0,0,1,.116.041c.075.032.152.061.225.1.042.022.083.039.126.057a1.115,1.115,0,0,1,.114.045c.008.006.02,0,.03.007a.55.55,0,0,1,.176.091c.051.043.108.08.158.124a1.417,1.417,0,0,1,.13.109.089.089,0,0,0,.025.017c.129.083.263.159.4.236a.078.078,0,0,0,.044.008l.046-.007a.5.5,0,0,0,.138-.012c.043-.017.084-.039.126-.057s.092-.047.139-.068a.734.734,0,0,0,.156-.1l.1-.079.19-.158a.534.534,0,0,1,.117-.075l.651-.318a.717.717,0,0,1,.071-.032.389.389,0,0,1,.058-.02l.18-.042c.2-.046.391-.09.587-.137a.529.529,0,0,1,.243,0c.111.024.222.042.334.062l.228.043a.264.264,0,0,1,.111.05l.024.02.241.193a.341.341,0,0,1,.062.068l.276.391a.19.19,0,0,1,.032.07c.05.188.1.377.15.566a.636.636,0,0,1,.02.122c.007.1.012.2.015.308a.158.158,0,0,1-.009.061c-.028.083-.059.164-.089.247a.14.14,0,0,1-.069.08c-.119.061-.237.124-.354.188a.612.612,0,0,1-.174.061c-.172.032-.342.076-.515.1a1.429,1.429,0,0,0-.151.031.039.039,0,0,0-.029.032l0,.015a.073.073,0,0,0,.063.09c.035.007.072.008.107.016.1.027.213.034.318.058a.632.632,0,0,0,.154.012c.071,0,.143-.006.216-.006a.418.418,0,0,0,.121-.018c.1-.031.2-.06.3-.088a.389.389,0,0,0,.112-.051l.27-.18c.038-.026.076-.053.114-.078a.257.257,0,0,0,.1-.114c.054-.124.111-.244.167-.365a.587.587,0,0,0,.049-.161c.006-.046.017-.092.026-.137.015-.081.031-.161.045-.243a.357.357,0,0,0,0-.139c-.021-.1-.043-.2-.065-.3a.381.381,0,0,0-.028-.088c-.065-.145-.132-.291-.2-.436a.575.575,0,0,0-.087-.145l-.069-.084-.347-.413-.041-.046a.129.129,0,0,0-.051-.034.883.883,0,0,0-.088-.028c-.224-.056-.447-.117-.671-.177a.477.477,0,0,0-.106-.017c-.078,0-.155-.006-.232-.013-.113-.012-.225-.018-.339-.022-.082,0-.165-.006-.247-.015-.026,0-.051,0-.077-.006a.323.323,0,0,0-.061,0l-.243.04-.091.013-.107.018c-.03,0-.061.012-.091.015-.061.006-.121.02-.182.031a.384.384,0,0,0-.088.028c-.261.122-.523.241-.781.37a.743.743,0,0,1-.423.131l-.061.009c-.067.007-.133.014-.2.019a.067.067,0,0,1-.043-.013c-.012-.009-.023-.02-.035-.029a.171.171,0,0,0-.081-.042.469.469,0,0,1-.072-.028.447.447,0,0,1-.087-.028.343.343,0,0,0-.059-.018c-.019-.007-.036-.017-.055-.025-.043,0-.074-.037-.116-.04l-.124-.061c-.041-.021-.08-.046-.122-.066s-.093-.044-.14-.063A.907.907,0,0,0,11.4,20.1a.79.79,0,0,0-.112-.05c-.035-.019-.075-.033-.112-.05s-.074-.035-.11-.056a.14.14,0,0,0-.072-.02.214.214,0,0,1-.119-.025.639.639,0,0,0-.2-.043.1.1,0,0,1-.043-.013.173.173,0,0,0-.074-.017H10.52a.155.155,0,0,1-.074-.019.117.117,0,0,0-.059-.013H9.739Z"/>
    <path d="M20.415,16.515a.456.456,0,0,0-.072-.247c-.02-.032-.035-.065-.054-.1a2.759,2.759,0,0,1-.178-.307.287.287,0,0,0-.063-.086,1.349,1.349,0,0,0-.148-.135c-.157-.111-.321-.221-.488-.324a.7.7,0,0,0-.124-.061c-.117-.041-.232-.083-.351-.12a.218.218,0,0,0-.043-.011c-.114-.015-.224-.038-.337-.053-.024,0-.05,0-.076-.006l-.2,0c-.148,0-.3.007-.446.007a.745.745,0,0,0-.243.039c-.015.006-.031.008-.043.013l-.729.2a6.818,6.818,0,0,1-.688.173c-.123.032-.252.054-.374.089-.059.018-.118.035-.179.051a3.844,3.844,0,0,1-.466.106c-.121.022-.241.046-.363.068s-.271.053-.409.079l-.469.087a1.764,1.764,0,0,1-.353.042,1.792,1.792,0,0,0-.183.011,2.357,2.357,0,0,1-.247.017c-.083,0-.164.007-.247.013-.134.013-.267.017-.4.02-.159,0-.319,0-.478.016a.79.79,0,0,1-.122,0c-.108-.012-.217-.013-.325-.02-.057,0-.113-.009-.168-.013s-.1-.009-.156-.016c-.035,0-.072-.006-.106-.011a1.7,1.7,0,0,0-.169-.02c-.027,0-.05,0-.076-.009-.123-.022-.243-.041-.365-.064-.147-.028-.293-.056-.438-.087-.1-.02-.192-.035-.286-.061-.135-.035-.269-.072-.4-.1-.1-.026-.207-.059-.31-.092l-.442-.138c-.249-.076-.5-.147-.755-.217-.183-.052-.366-.1-.551-.146a1.213,1.213,0,0,0-.213-.039.981.981,0,0,1-.106-.017.843.843,0,0,0-.232-.011c-.035,0-.072,0-.108.009-.065.01-.133.017-.2.021a.743.743,0,0,0-.092.013c-.14.028-.281.059-.421.09-.05.011-.1.019-.15.035-.158.048-.316.1-.471.146a.5.5,0,0,0-.139.064c-.075.046-.151.09-.228.132a2.157,2.157,0,0,0-.188.132.336.336,0,0,0-.063.068c-.112.156-.219.313-.32.475a.617.617,0,0,0-.036.068c-.038.1-.075.192-.11.288a.14.14,0,0,0-.013.059c0,.088,0,.175,0,.262l0,.031a.075.075,0,0,0,.038.046.233.233,0,0,0,.076.011.066.066,0,0,0,.05-.031.983.983,0,0,0,.081-.166c.013-.033.024-.068.037-.1a.652.652,0,0,1,.132-.208c.052-.05.1-.1.148-.157a.379.379,0,0,1,.151-.106.3.3,0,0,1,.041-.017.188.188,0,0,1,.075-.017l.341-.013c.024,0,.05.006.076.009a.048.048,0,0,1,.039.055.485.485,0,0,1-.077.184c-.008.013-.017.026-.026.039a.309.309,0,0,0-.057.124.3.3,0,0,0-.015.075c0,.083-.006.166,0,.247a.4.4,0,0,0,.043.161c.049.086.092.173.138.26.012.018.02.035.031.054a.361.361,0,0,0,.081.111.505.505,0,0,0,.1.048l.083.043a1.653,1.653,0,0,0,.281.121c.06.02.119.038.176.059a.876.876,0,0,0,.195.046c.113.015.224.028.339.041.02,0,.039,0,.059.009A1.432,1.432,0,0,0,7,17.879a.468.468,0,0,1,.061.009c.112.021.225.021.337.044a.218.218,0,0,0,.108,0,1.7,1.7,0,0,1,.333-.054c.028,0,.054,0,.077-.009a1.61,1.61,0,0,1,.169-.02.627.627,0,0,0,.094-.008,1.492,1.492,0,0,1,.245-.023,2.725,2.725,0,0,0,.429-.05A.91.91,0,0,0,9,17.733a2.585,2.585,0,0,0,.369-.109c.083-.028.166-.05.251-.076a.229.229,0,0,1,.09-.009.078.078,0,0,1,.07.072v.031a.873.873,0,0,1-.066.268.207.207,0,0,1-.045.062,4.272,4.272,0,0,0-.361.422.4.4,0,0,1-.08.074,2.044,2.044,0,0,1-.45.266l-.1.046a.376.376,0,0,1-.057.021,1.07,1.07,0,0,1-.334.057c-.259,0-.514,0-.773.006a1.377,1.377,0,0,0-.2.013c-.057.006-.113.011-.171.015a.422.422,0,0,1-.137-.009c-.046-.011-.093-.016-.135-.022-.1-.015-.195-.024-.293-.036-.147-.02-.294-.044-.443-.069-.1-.015-.2-.032-.3-.05a2.009,2.009,0,0,1-.3-.07c-.078-.028-.155-.052-.233-.076s-.169-.054-.25-.086a.414.414,0,0,0-.087-.026.128.128,0,0,0-.031,0,.042.042,0,0,0-.037.042.048.048,0,0,0,.009.028.225.225,0,0,0,.065.065,1.29,1.29,0,0,0,.289.145c.127.041.251.089.373.141a4.253,4.253,0,0,0,.512.173.825.825,0,0,0,.228.042c.03,0,.061.008.091.013l.122.013a1.582,1.582,0,0,1,.169.02c.035.006.07.009.107.013s.092.011.138.015l.108.013.122.017.291.039c.02,0,.039,0,.061,0,.232,0,.463,0,.7,0a.942.942,0,0,0,.168-.013,1.455,1.455,0,0,1,.169-.016c.041,0,.083-.006.122-.013.069-.01.134-.015.2-.019l.153-.015.229-.02c.072-.031.143-.063.213-.091.1-.042.212-.083.317-.122.158-.061.317-.124.475-.182a.76.76,0,0,0,.15-.079c.173-.121.342-.25.506-.38a1.314,1.314,0,0,0,.2-.195c.013-.015.026-.031.041-.046a1.227,1.227,0,0,0,.1-.137c.1-.158.208-.317.3-.481a1.233,1.233,0,0,0,.094-.177,1.8,1.8,0,0,0,.11-.288.483.483,0,0,1,.037-.1.048.048,0,0,1,.037-.027.233.233,0,0,1,.046,0,1.527,1.527,0,0,1,.168.016,1.2,1.2,0,0,0,.184.009l.14-.009c.02,0,.042,0,.061,0a2.167,2.167,0,0,0,.247.012.447.447,0,0,1,.046,0,.063.063,0,0,1,.048.033c.009.02.017.036.026.057.031.076.059.153.09.229.016.038.031.077.048.113.05.1.1.193.149.289a.494.494,0,0,0,.076.113l.267.3a.381.381,0,0,0,.07.063.282.282,0,0,1,.054.052.5.5,0,0,0,.061.068c.1.1.206.189.31.28a.583.583,0,0,0,.124.087c.217.123.328.184.544.291a1.394,1.394,0,0,0,.258.1c.284.1.57.175.857.254.027.006.05.013.076.017s.061.009.09.016a1.119,1.119,0,0,0,.187.022l.614.013c.017,0,.064,0,.109,0,.124,0,.247-.009.372-.016a1.818,1.818,0,0,0,.276-.024c.042-.007.08-.009.122-.013s.072,0,.107-.009c.129-.017.256-.035.383-.05.031,0,.061-.013.091-.018.143-.024.28-.067.423-.091.085-.015.17-.04.255-.05.022,0,.041-.011.061-.016.048-.013.1-.028.148-.041a.327.327,0,0,0,.1-.046c.1-.064.189-.124.283-.188.048-.032.092-.065.138-.1a.091.091,0,0,0,.033-.05.036.036,0,0,0,0-.015.03.03,0,0,0-.035-.022c-.124.028-.252.057-.373.1a1.431,1.431,0,0,1-.24.061,1.359,1.359,0,0,0-.135.024c-.074.021-.153.019-.227.043s-.163.028-.243.043c-.127.024-.253.046-.378.08a1.338,1.338,0,0,1-.271.047.3.3,0,0,0-.076.011.83.83,0,0,1-.171.013c-.3,0-.606,0-.91-.009a.988.988,0,0,1-.346-.072l-.187-.072c-.134-.05-.267-.109-.4-.167a.6.6,0,0,1-.1-.047,1.462,1.462,0,0,1-.262-.215,1.177,1.177,0,0,0-.109-.109.617.617,0,0,1-.1-.133,1.22,1.22,0,0,1-.107-.241c-.021-.068-.042-.138-.061-.206a.146.146,0,0,1,0-.061.062.062,0,0,1,.047-.052.145.145,0,0,1,.031,0,.555.555,0,0,1,.153.017c.179.039.358.086.54.121.077.014.151.037.228.045.114.011.226.035.339.037a2.6,2.6,0,0,0,.276.033.3.3,0,0,1,.058.011.675.675,0,0,0,.077.011c.133.009.266.037.4.05l.384.042a.823.823,0,0,0,.108,0c.061,0,.124-.007.185-.013a2.528,2.528,0,0,0,.335-.044.037.037,0,0,1,.015,0,.786.786,0,0,0,.2-.039c.147-.046.3-.088.442-.143a1.359,1.359,0,0,0,.371-.18.114.114,0,0,0,.035-.031.8.8,0,0,0,.132-.207.379.379,0,0,1,.027-.057,1.17,1.17,0,0,0,.067-.221,1.331,1.331,0,0,0,.027-.166.1.1,0,0,0,0-.046,1.525,1.525,0,0,0-.094-.292.417.417,0,0,1-.039-.1.189.189,0,0,0-.038-.068.339.339,0,0,1-.057-.072.048.048,0,0,1,.015-.054.224.224,0,0,1,.028-.013c.031,0,.061-.009.093-.012a.473.473,0,0,1,.27.04c.024.009.049.017.072.028a.752.752,0,0,1,.109.056.987.987,0,0,1,.319.309c.075.117.171.219.254.331a.152.152,0,0,0,.024.019.07.07,0,0,0,.041.018.042.042,0,0,0,.046-.028c0-.011,0-.023,0-.031a.164.164,0,0,0,0-.048c0-.108-.007-.214-.012-.324m-10.5.306-.185.137a.181.181,0,0,1-.054.029l-.276.1-.754.268a1.549,1.549,0,0,1-.147.051,1.76,1.76,0,0,1-.179.037c-.138.028-.273.052-.409.08a.543.543,0,0,1-.137.013c-.1,0-.206-.006-.327-.017l-.26-.009a.424.424,0,0,1-.195-.039c-.043-.016-.085-.035-.129-.048a2.476,2.476,0,0,1-.34-.142.647.647,0,0,1-.106-.064c-.057-.046-.114-.09-.173-.128a.246.246,0,0,1-.089-.124.654.654,0,0,0-.024-.073A.461.461,0,0,1,6.1,16.71,2.634,2.634,0,0,1,6.13,16.4c.009-.05.012-.1.018-.153A.06.06,0,0,1,6.2,16.2c.051,0,.1.007.154.013.148.022.3.039.443.057a.506.506,0,0,1,.077.011c.07.016.141.013.213.027a.13.13,0,0,1,.042.017.017.017,0,0,1,.007.026c-.009.017-.02.038-.031.053a.394.394,0,0,0-.081.214.311.311,0,0,0,.028.24c0,.013.011.029.016.042a.107.107,0,0,0,.05.057c.081.046.161.09.247.128a.88.88,0,0,1,.083.039.748.748,0,0,0,.239.065c.061.007.122.011.181.023a.2.2,0,0,0,.049,0c.076,0,.153-.009.229-.016a.187.187,0,0,0,.061-.011,1.059,1.059,0,0,0,.117-.036.239.239,0,0,0,.093-.053c.037-.035.076-.068.115-.1s.077-.054.1-.1a.925.925,0,0,0,.07-.171.612.612,0,0,0,.017-.073.109.109,0,0,1,.095-.091.885.885,0,0,1,.277,0c.162.022.324.055.485.076l.215.035a.678.678,0,0,1,.074.019.1.1,0,0,1,.055.051.057.057,0,0,1-.012.07m8.607-.176a.149.149,0,0,1-.013.061c-.052.129-.1.256-.158.384a.52.52,0,0,1-.024.057.129.129,0,0,1-.044.043l-.013.007c-.158.079-.313.154-.473.227a.231.231,0,0,1-.087.024c-.091.009-.186.015-.278.027-.141.017-.286.028-.428.041a.494.494,0,0,0-.061.006.242.242,0,0,1-.092,0,1.54,1.54,0,0,0-.169-.021c-.076-.011-.153-.02-.229-.033-.1-.018-.192-.024-.288-.046a.492.492,0,0,0-.077-.01.587.587,0,0,1-.089-.022c-.171-.059-.339-.118-.508-.184-.033-.013-.065-.028-.1-.044-.078-.039-.155-.078-.232-.12s-.155-.083-.233-.119a.174.174,0,0,1-.042-.021.112.112,0,0,1-.059-.129.084.084,0,0,1,.061-.063c.083-.012.164-.024.244-.039.166-.028.335-.053.5-.083.046-.009.091-.012.138-.018a.054.054,0,0,1,.046.035c0,.016.009.031.011.046s0,.061.009.091a.085.085,0,0,0,.017.042c.039.048.079.095.121.139a.178.178,0,0,0,.048.038c.079.042.155.081.232.123l.028.01c.094.028.187.061.283.083.05.013.1.013.15.021a1.089,1.089,0,0,0,.324-.017.231.231,0,0,0,.072-.027,1.246,1.246,0,0,0,.369-.3.169.169,0,0,0,.028-.054.3.3,0,0,0,.009-.225.616.616,0,0,0-.09-.177.033.033,0,0,1,.02-.05l.013-.007c.012,0,.02-.007.031-.009a1.154,1.154,0,0,0,.182-.031c.148-.017.293-.05.441-.072.1-.013.193-.033.29-.05a.105.105,0,0,1,.058,0,.056.056,0,0,1,.033.031.069.069,0,0,1,.009.028,2.279,2.279,0,0,1,.017.262Z"/>
    <path d="M24.929,15.953c-.007-.076-.009-.155-.013-.232a1.666,1.666,0,0,0-.033-.306.453.453,0,0,1-.013-.106.6.6,0,0,0-.017-.123c-.009-.04-.016-.081-.024-.121a1.148,1.148,0,0,1-.033-.117,1.411,1.411,0,0,0-.063-.208c-.037-.106-.086-.208-.128-.313a.368.368,0,0,0-.054-.094c-.013-.015-.024-.033-.037-.048-.048-.055-.092-.112-.136-.169a1.4,1.4,0,0,0-.229-.229c-.048-.039-.1-.076-.142-.117a.2.2,0,0,0-.055-.03c-.1-.035-.192-.072-.288-.107a.2.2,0,0,0-.061-.011c-.076,0-.155-.009-.234-.009-.039,0-.078,0-.12,0s-.1.007-.15.007-.106,0-.159-.007a.2.2,0,0,1-.111-.05.146.146,0,0,1-.05-.092c-.011-.076-.022-.153-.028-.23a1.2,1.2,0,0,1-.016-.184,1.335,1.335,0,0,0-.022-.216,1.042,1.042,0,0,1-.015-.184c0-.072-.006-.144-.013-.216a3.635,3.635,0,0,1-.021-.37c0-.087,0-.175,0-.262,0-.065,0-.133-.009-.2-.007-.1-.017-.206-.026-.309a.733.733,0,0,0-.014-.076,1,1,0,0,1-.026-.151.455.455,0,0,0-.017-.091.914.914,0,0,1-.025-.151c-.006-.05-.021-.1-.032-.151a.287.287,0,0,1,0-.045.289.289,0,0,0-.015-.092.417.417,0,0,1-.022-.121.442.442,0,0,0-.017-.107.793.793,0,0,1-.017-.09.7.7,0,0,0-.027-.135.347.347,0,0,1-.017-.076.627.627,0,0,0-.024-.1c-.007-.024-.011-.05-.016-.075a.193.193,0,0,0-.011-.061c-.028-.08-.026-.162-.057-.241a.922.922,0,0,0-.059-.238c-.065-.2-.133-.4-.2-.6-.031-.091-.061-.185-.1-.276s-.064-.15-.1-.228c-.134-.317-.267-.633-.4-.953a1.116,1.116,0,0,0-.076-.15c-.164-.291-.328-.581-.492-.875-.043-.074-.087-.15-.129-.228a4.869,4.869,0,0,0-.271-.448c-.016-.021-.031-.043-.044-.065-.321-.49-.64-.981-.962-1.471a.2.2,0,0,1-.037-.132c0-.035,0-.072.009-.107a.086.086,0,0,1,.057-.068.585.585,0,0,1,.059-.017l.072-.026a.136.136,0,0,0,.061-.068.057.057,0,0,0,0-.044,1.691,1.691,0,0,0-.114-.164c-.111-.135-.232-.265-.34-.4a.5.5,0,0,0-.064-.065l-.486-.406c-.057-.046-.111-.093-.169-.138-.019-.016-.039-.031-.061-.046-.181-.117-.363-.236-.542-.354-.061-.039-.124-.074-.188-.107-.13-.063-.258-.128-.388-.195a1.135,1.135,0,0,0-.139-.059c-.065-.019-.128-.046-.193-.061a.206.206,0,0,1-.08-.044l-.057-.052a.3.3,0,0,1-.091-.123c-.01-.035-.026-.068-.036-.1a.1.1,0,0,1,.067-.121c.02,0,.042-.007.062-.011s.061-.011.089-.02a.2.2,0,0,0,.042-.02.118.118,0,0,0,.022-.022A.053.053,0,0,0,17,.956l-.131-.08a.719.719,0,0,0-.214-.083c-.252-.059-.5-.127-.746-.2-.181-.054-.365-.106-.549-.153A.928.928,0,0,0,15.12.41h-.639v0h-.695L13.74.4a.07.07,0,0,1-.057-.046L13.676.343c0-.015-.006-.031-.008-.046a.128.128,0,0,1,.013-.09A.668.668,0,0,0,13.738.1a.048.048,0,0,0-.013-.044A.028.028,0,0,0,13.7.046h0c-.092.013-.184.026-.276.041a.627.627,0,0,0-.087.027c-.031.01-.057.024-.086.036-.148.072-.3.136-.451.2-.024.011-.047.02-.072.028a.187.187,0,0,1-.057.009.2.2,0,0,1-.079-.015.088.088,0,0,1-.027-.016.1.1,0,0,0-.043-.013A.149.149,0,0,1,12.45.321a2.109,2.109,0,0,1-.184-.113A.5.5,0,0,0,12.2.169a.132.132,0,0,0-.072-.024.087.087,0,0,1-.044-.007C12.043.116,12,.114,11.953.092A.26.26,0,0,0,11.864.07.151.151,0,0,1,11.82.059a.477.477,0,0,0-.1-.033A.19.19,0,0,0,11.61,0H11.6c-.065,0-.134,0-.2,0-.009,0-.02,0-.03,0s-.031.041-.027.052A.324.324,0,0,1,11.356.1a.22.22,0,0,0,.066.1.073.073,0,0,1,.02.024.093.093,0,0,1,.01.028.183.183,0,0,1-.017.089A.049.049,0,0,1,11.4.374c-.057,0-.116.013-.172.013a.42.42,0,0,1-.044,0c-.068,0-.137-.007-.2-.007H10.86a.385.385,0,0,1-.15-.021A.159.159,0,0,0,10.663.35c-.07,0-.142-.006-.212-.006s-.116,0-.175.006a.136.136,0,0,0-.059.011.365.365,0,0,1-.12.017h-.062c-.052,0-.1,0-.154,0A.248.248,0,0,0,9.773.4a.288.288,0,0,1-.1.021.21.21,0,0,0-.091.016.133.133,0,0,1-.063.015.044.044,0,0,1-.017,0H9.476a.235.235,0,0,0-.107.024.065.065,0,0,1-.028.009c-.03,0-.061,0-.095,0a.237.237,0,0,0-.074.018A.147.147,0,0,1,9.1.521l-.083,0H9c-.038,0-.066.026-.1.03a.248.248,0,0,0-.075.022.759.759,0,0,1-.21.09c-.009,0-.017.013-.027.015C8.554.7,8.517.71,8.479.729c-.037,0-.065.028-.1.039a.551.551,0,0,0-.11.05c-.045.024-.091.049-.138.07a.321.321,0,0,0-.117.095c-.02.026-.042.048-.059.072a.116.116,0,0,0-.02.087.052.052,0,0,0,.042.035h0a.169.169,0,0,0,.031-.007c.037-.01.077-.024.117-.037a.315.315,0,0,1,.061-.01h.039c.041,0,.085,0,.129,0a.045.045,0,0,1,.033.028.16.16,0,0,1,0,.077.566.566,0,0,1-.037.067.124.124,0,0,1-.031.033,1.579,1.579,0,0,1-.258.135c-.088.031-.173.068-.257.1-.033.016-.068.026-.1.039a.885.885,0,0,1-.111.05,1.178,1.178,0,0,0-.114.044,1.013,1.013,0,0,0-.109.057.942.942,0,0,0-.107.061,2.3,2.3,0,0,1-.2.119,3.372,3.372,0,0,0-.339.211c-.028.023-.054.046-.085.069l-.262.188c-.061.046-.124.091-.182.142a1.19,1.19,0,0,1-.135.1c-.02.016-.04.033-.06.051-.048.046-.1.091-.144.139a.533.533,0,0,0-.061.068,2.3,2.3,0,0,1-.239.262c-.046.044-.087.088-.132.132a.172.172,0,0,0-.05.076.131.131,0,0,1-.026.037.738.738,0,0,0-.066.123.093.093,0,0,0,0,.074.032.032,0,0,0,.022.02.17.17,0,0,0,.057.006H5.4a.181.181,0,0,1,.072.022.155.155,0,0,0,.043.013.2.2,0,0,1,.084.039.033.033,0,0,1,.017.024,1.038,1.038,0,0,1,.009.122.079.079,0,0,1-.011.044c-.031.059-.064.116-.1.176-.059.109-.124.213-.176.325,0,.009-.008.02-.013.028-.02.031-.035.061-.057.09a.713.713,0,0,0-.081.114.273.273,0,0,1-.039.047c-.046.061-.094.122-.142.182-.011.048-.05.076-.072.118a.6.6,0,0,1-.053.076c-.021.026-.041.057-.063.085q-.144.19-.276.391a.509.509,0,0,1-.081.112.039.039,0,0,0-.017.026c-.012.035-.043.057-.06.087a.7.7,0,0,1-.061.09.311.311,0,0,0-.043.064c-.016.026-.039.047-.055.073s-.031.053-.047.079a.56.56,0,0,0-.044.061.332.332,0,0,1-.052.077.533.533,0,0,1-.051.076,1.128,1.128,0,0,0-.166.261c-.035.067-.07.135-.106.2s-.072.135-.107.2c-.02.037-.04.072-.061.107-.033.053-.063.106-.094.16L3.345,7.5a.077.077,0,0,0-.01.029c0,.043-.035.074-.038.116-.035.075-.058.153-.1.225-.022.042-.032.087-.057.127-.008.05-.043.091-.052.144-.031.07-.046.146-.083.214a.134.134,0,0,0-.016.058.2.2,0,0,1-.017.059.156.156,0,0,0-.016.043c0,.057-.04.106-.044.163a.249.249,0,0,0-.037.1.222.222,0,0,1-.013.029.123.123,0,0,0-.021.056.165.165,0,0,1-.024.072c-.009.017-.017.038-.026.054s-.009.053-.02.075a.275.275,0,0,0-.031.1.163.163,0,0,1-.009.028.13.13,0,0,0-.013.028c0,.02,0,.042-.01.061s-.023.046-.028.07a.271.271,0,0,1-.028.087.065.065,0,0,0-.006.031.276.276,0,0,1-.031.1c-.008.024-.008.051-.017.075a.268.268,0,0,0-.024.072.13.13,0,0,1-.022.056.244.244,0,0,0-.02.075c-.009.024-.021.046-.031.07a.162.162,0,0,0,0,.031v.155a.123.123,0,0,1-.012.058.233.233,0,0,0-.024.106c0,.117-.024.234-.035.352,0,.015-.007.03-.01.046a.269.269,0,0,0-.018.106v.155a.186.186,0,0,1-.015.074.208.208,0,0,0-.018.09c0,.068,0,.135,0,.2a.193.193,0,0,1-.013.076.208.208,0,0,0-.02.09v.184a.212.212,0,0,1-.017.09.183.183,0,0,0-.018.092c0,.05,0,.1,0,.153a.191.191,0,0,1-.021.09.106.106,0,0,0-.016.058v.187a.152.152,0,0,1-.015.059.157.157,0,0,0-.02.074V12.6a.179.179,0,0,1-.017.075.117.117,0,0,0-.016.059c0,.057,0,.113,0,.17a.144.144,0,0,1-.018.074.108.108,0,0,0-.013.06c0,.046,0,.091,0,.137a.338.338,0,0,1,0,.063.126.126,0,0,1-.025.055.061.061,0,0,1-.039.024c-.02,0-.039,0-.061.006-.137,0-.277.009-.415.011a.264.264,0,0,0-.106.022.141.141,0,0,1-.061.011c-.057,0-.111,0-.169,0s-.109.055-.169.076a.548.548,0,0,1-.054.024.573.573,0,0,0-.162.09c-.058.041-.112.092-.166.135a.323.323,0,0,0-.1.114c0,.016-.017.024-.026.038-.028.037-.054.076-.083.111s-.06.085-.091.125c-.061.078-.1.166-.164.244a.46.46,0,0,0-.041.081c0,.043-.032.074-.038.116a.473.473,0,0,1-.028.072c-.012.028-.014.058-.025.087a.363.363,0,0,1-.035.07.292.292,0,0,1-.026.038.106.106,0,0,0-.017.056c0,.033,0,.064,0,.1v.338a1.3,1.3,0,0,1-.02.215.48.48,0,0,0-.014.153c0,.159,0,.319,0,.478,0,.062-.011.124-.011.184s.017.122.013.186a.251.251,0,0,0,.021.12.113.113,0,0,1,.013.06v.2a.416.416,0,0,0,.02.135.31.31,0,0,1,.013.076c0,.031,0,.061,0,.092A.485.485,0,0,0,.1,17.37a.321.321,0,0,0,.057.158.046.046,0,0,1,.013.026.476.476,0,0,0,.059.158C.28,17.8.315,17.9.356,18c.006.039.035.072.044.113a.234.234,0,0,0,.026.055c.031.066.063.129.094.195.02.046.044.092.065.137a1.447,1.447,0,0,1,.062.143c.026.042.054.085.08.129a.518.518,0,0,1,.042.083.4.4,0,0,0,.039.065c.061.083.113.17.172.256.006.024.028.042.035.068s.035.05.051.076.024.046.035.068a1.1,1.1,0,0,0,.076.117.2.2,0,0,0,.057.052.081.081,0,0,1,.03.033c.039.079.079.155.116.236.018.042.037.083.057.124s.05.1.077.151a.136.136,0,0,1,.021.072.23.23,0,0,0,.022.121.089.089,0,0,1,.009.043c0,.042,0,.083,0,.125a.278.278,0,0,0,.024.15c0,.02.006.04.008.061v.153a.219.219,0,0,0,.016.075.219.219,0,0,1,.017.091c0,.1,0,.206,0,.309a.331.331,0,0,1-.013.091.465.465,0,0,0-.018.135c0,.069,0,.136,0,.2a.207.207,0,0,1-.021.1.137.137,0,0,0-.011.061c0,.046,0,.091,0,.138a.187.187,0,0,1-.009.061.2.2,0,0,0-.022.1c0,.041,0,.083,0,.124a.152.152,0,0,1-.02.075.13.13,0,0,0-.013.059c0,.045,0,.091,0,.138a.247.247,0,0,1-.019.106.171.171,0,0,0-.013.075v.217a.243.243,0,0,1-.02.1.262.262,0,0,0-.017.107v.2a.222.222,0,0,1-.02.107.211.211,0,0,0-.017.089c0,.072,0,.145,0,.214a.218.218,0,0,1-.024.1.148.148,0,0,0-.011.059c0,.088,0,.176,0,.263a.121.121,0,0,1-.013.061.182.182,0,0,0-.02.089c0,.081,0,.165-.006.245a.2.2,0,0,1-.009.076.362.362,0,0,0-.017.123,1.412,1.412,0,0,1-.022.229.307.307,0,0,0-.009.076v.37a.082.082,0,0,0,.033.068c.042.031.083.061.126.09s.095.063.139.1a.367.367,0,0,1,.078.074.687.687,0,0,1,.088.124.623.623,0,0,1,.043.082.372.372,0,0,1,.042.08c.044.1.095.195.143.291a1.322,1.322,0,0,0,.107.186.155.155,0,0,1,.024.039c.065.123.128.245.192.369.024.046.046.091.068.138s.057.1.085.147c.006.009.009.017.016.027.021.028.019.069.043.1s.039.061.061.089a.772.772,0,0,1,.05.094.451.451,0,0,0,.058.09.212.212,0,0,1,.023.039c.017.033.031.065.047.1l.066.106c.026.037.053.076.076.115a.627.627,0,0,0,.068.1.232.232,0,0,1,.022.042A.717.717,0,0,0,3,28.268a2.394,2.394,0,0,1,.141.238.3.3,0,0,0,.025.039,1.309,1.309,0,0,1,.089.127,1.011,1.011,0,0,1,.087.145.141.141,0,0,0,.027.035.14.14,0,0,1,.028.038c.024.058.072.1.1.154s.061.07.08.114.057.085.086.127a2.828,2.828,0,0,1,.16.244c.026.044.061.082.084.129a.547.547,0,0,0,.046.061c.041.065.1.121.133.188a.4.4,0,0,0,.038.05A.29.29,0,0,1,4.143,30a.026.026,0,0,0,.009.011c.024.019.047.036.072.057s.053.05.081.074a.285.285,0,0,0,.048.035.11.11,0,0,0,.046.009.043.043,0,0,0,.042-.035.928.928,0,0,0,0-.155.192.192,0,0,1,.026-.1.139.139,0,0,0,.011-.044.074.074,0,0,1,.036-.047c.009,0,.016-.011.025-.016a.113.113,0,0,1,.05-.013.089.089,0,0,1,.039.009c.02.009.037.02.054.028a.519.519,0,0,1,.121.1.712.712,0,0,1,.135.166c0,.009.013.015.019.024a.988.988,0,0,0,.149.154,1.735,1.735,0,0,1,.208.209,2.292,2.292,0,0,0,.161.166,2.787,2.787,0,0,1,.252.249.983.983,0,0,0,.09.083c.078.061.154.12.234.179a.622.622,0,0,1,.1.089.528.528,0,0,0,.1.093,1.528,1.528,0,0,1,.123.094.339.339,0,0,0,.059.047.894.894,0,0,1,.12.1c.028.024.057.046.084.069.057.054.122.095.176.147a2.358,2.358,0,0,0,.217.148,1.361,1.361,0,0,1,.2.121,1.493,1.493,0,0,0,.167.106c.051.029.1.055.15.083a1.565,1.565,0,0,0,.206.1.1.1,0,0,1,.024.013.317.317,0,0,1,.031.017c.02.013.044.024.065.035a.059.059,0,0,0,.024.006.057.057,0,0,0,.035-.013.269.269,0,0,0,.1-.116c.009-.02.018-.037.028-.054a.028.028,0,0,1,.024-.017.418.418,0,0,1,.074-.013h0a.26.26,0,0,1,.075.011.339.339,0,0,0,.056.024.774.774,0,0,1,.1.039.405.405,0,0,1,.1.048.589.589,0,0,1,.08.05,3.038,3.038,0,0,0,.369.219c.079.039.155.083.228.128a3.822,3.822,0,0,0,.345.2.368.368,0,0,0,.042.019,2.577,2.577,0,0,0,.273.143c.053.035.109.057.16.094a1.325,1.325,0,0,0,.187.1c.054.024.1.049.155.07.1.039.2.087.3.129a.544.544,0,0,1,.068.035c.086.049.171.094.258.138.055.026.112.053.169.076a4.67,4.67,0,0,1,.44.219c.192.109.391.2.592.291a.146.146,0,0,0,.059.013h.016a.2.2,0,0,0,.061-.009.155.155,0,0,1,.07-.016h.006a.169.169,0,0,0,.072-.017c.251-.107.5-.217.75-.325a.119.119,0,0,0,.029-.012.228.228,0,0,0,.076-.052.223.223,0,0,1,.114-.074.154.154,0,0,1,.087-.022.186.186,0,0,0,.061-.006c.072-.031.14-.064.21-.1a.635.635,0,0,1,.195-.094l.157-.06a2.447,2.447,0,0,0,.281-.126l1.014-.492c.036-.017.073-.037.109-.057l.361-.21c.143-.08.284-.164.428-.247a.238.238,0,0,1,.117-.033c.032,0,.065,0,.1,0a.1.1,0,0,1,.026,0,.077.077,0,0,1,.042.015.706.706,0,0,1,.054.054.149.149,0,0,1,.031.07.185.185,0,0,0,.009.043l.009.013a.033.033,0,0,0,.022.012l.006,0c.1-.039.2-.092.31-.136a1.438,1.438,0,0,0,.243-.131l.58-.383c.048-.033.094-.064.14-.1.175-.127.347-.256.522-.383a2.721,2.721,0,0,0,.335-.273.735.735,0,0,1,.057-.053c.072-.065.144-.131.216-.2s.158-.148.239-.218a3.76,3.76,0,0,0,.413-.417c.057-.067.116-.131.175-.195A.467.467,0,0,1,20,29.973a.045.045,0,0,1,.028-.011.593.593,0,0,1,.083-.006.621.621,0,0,1,.086.006.064.064,0,0,1,.031.009c.026.017.052.032.077.05a.089.089,0,0,1,.035.065c0,.046.01.092.017.138a.118.118,0,0,0,.019.042c0,.007.014.011.025.011a.021.021,0,0,0,.015,0,.469.469,0,0,0,.046-.042c.053-.061.106-.127.16-.188.14-.164.284-.326.42-.494a1.382,1.382,0,0,0,.157-.208c.018-.026.033-.054.051-.079a.352.352,0,0,0,.07-.153.025.025,0,0,1,.015-.024.317.317,0,0,0,.107-.109c.072-.112.148-.223.223-.335.024-.039.048-.078.072-.117.133-.232.265-.466.4-.7a2.648,2.648,0,0,0,.155-.319c.021-.057.046-.114.07-.171.05-.124.1-.247.15-.372s.1-.247.156-.369a3.019,3.019,0,0,0,.109-.321c.016-.048.03-.1.048-.146a.07.07,0,0,1,.043-.039.041.041,0,0,1,.016,0,.238.238,0,0,1,.068-.009.449.449,0,0,1,.054,0,.055.055,0,0,1,.028.009.548.548,0,0,1,.053.035.126.126,0,0,1,.053.09.472.472,0,0,1,.009.076c0,.061,0,.123.006.186a.568.568,0,0,0,0,.061s.006.006.009.011a.031.031,0,0,0,.027.013.032.032,0,0,0,.026-.016c.037-.079.073-.158.109-.239a.137.137,0,0,0,.016-.059.638.638,0,0,1,.024-.168.273.273,0,0,0,.011-.074.9.9,0,0,1,.026-.154.63.63,0,0,0,.02-.122.882.882,0,0,1,.024-.15c.013-.056.015-.112.022-.169l0-.016a.514.514,0,0,0,.022-.184v-1.1a.924.924,0,0,0-.013-.169,1.534,1.534,0,0,1-.02-.247,2.351,2.351,0,0,0-.031-.4.312.312,0,0,1-.006-.061.65.65,0,0,0-.021-.135.706.706,0,0,1-.022-.138.479.479,0,0,0-.011-.077.885.885,0,0,1-.028-.2.2.2,0,0,0-.011-.061.55.55,0,0,1-.022-.169.437.437,0,0,0-.016-.122.746.746,0,0,1-.021-.184.5.5,0,0,0-.015-.121.591.591,0,0,1-.02-.153.932.932,0,0,0-.026-.2.848.848,0,0,1-.019-.169.926.926,0,0,0-.011-.106.737.737,0,0,1-.016-.184c0-.33,0-.661,0-.988,0-.072.006-.144.011-.216a.119.119,0,0,1,.031-.07,1.517,1.517,0,0,1,.18-.169,2.651,2.651,0,0,0,.255-.223c.15-.15.3-.3.443-.451a.538.538,0,0,0,.077-.1c.1-.158.192-.315.291-.473a.463.463,0,0,0,.037-.085c.033-.1.07-.2.1-.306a2.244,2.244,0,0,0,.087-.312.833.833,0,0,0,.043-.2.456.456,0,0,1,.017-.059c.016-.054.033-.109.049-.161.006-.079.042-.149.05-.228a.533.533,0,0,0,.037-.179,1.013,1.013,0,0,1,.018-.107c0-.02.009-.039.01-.059.007-.079.016-.156.02-.232.007-.138.01-.278.013-.416a1.981,1.981,0,0,0-.008-.247M2.252,15.131c-.006.012-.013.015-.024.012L2.2,15.131c-.019-.015-.039-.032-.058-.05a.886.886,0,0,0-.158-.122.958.958,0,0,1-.1-.072c-.013-.008-.026-.019-.039-.026a.152.152,0,0,0-.087-.026c-.035,0-.072,0-.107,0a.388.388,0,0,0-.18.033.451.451,0,0,1-.134.039c-.039,0-.063.031-.094.05-.008,0-.01.016-.015.027s-.022.035-.031.053a.221.221,0,0,0-.006.076v.015h0v.046a.081.081,0,0,0,.063.078.221.221,0,0,1,.1.031c.035,0,.063.031.1.039a.106.106,0,0,1,.078.068.559.559,0,0,0,.05.1.163.163,0,0,1,.017.075v.031a.173.173,0,0,1-.02.087.059.059,0,0,0-.011.028.236.236,0,0,1-.035.1.31.31,0,0,1-.017.042.178.178,0,0,0-.018.089c0,.054,0,.1,0,.156a.1.1,0,0,1-.014.057c-.007.015-.012.028-.018.044a.392.392,0,0,0-.035.21.162.162,0,0,0,.013.059.223.223,0,0,1,.022.121v.094a.183.183,0,0,0,.016.059c.013.021.019.046.032.07a.326.326,0,0,1,.022.057.253.253,0,0,0,.079.112c.054.047.1.1.153.153a1.046,1.046,0,0,0,.147.135.082.082,0,0,1,.028.068.219.219,0,0,1-.02.121.129.129,0,0,0-.013.076.153.153,0,0,1-.02.087c0,.009-.006.02-.011.028l0,.016a.483.483,0,0,1-.006.076c0,.02-.015.039-.02.059a.129.129,0,0,0-.006.043.187.187,0,0,1-.022.09.11.11,0,0,0-.013.059.522.522,0,0,1,0,.061.05.05,0,0,1-.009.03.185.185,0,0,0-.024.1.079.079,0,0,1-.009.046.352.352,0,0,0-.031.1.066.066,0,0,1-.019.041.1.1,0,0,0-.018.042.142.142,0,0,1-.026.072.2.2,0,0,0-.037.1.042.042,0,0,1-.048.028.23.23,0,0,1-.044-.013.166.166,0,0,1-.035-.028c-.059-.057-.118-.116-.175-.173a.366.366,0,0,1-.042-.045,1.513,1.513,0,0,0-.2-.232.16.16,0,0,1-.049-.079c-.067-.124-.126-.256-.195-.382a.472.472,0,0,1-.039-.083c-.016-.037-.037-.072-.053-.111a.218.218,0,0,1-.019-.057A.187.187,0,0,0,.7,17.3a.194.194,0,0,1-.031-.1.133.133,0,0,0-.02-.072.13.13,0,0,1-.013-.046.2.2,0,0,0-.03-.116A.094.094,0,0,1,.6,16.909a.132.132,0,0,0-.017-.057.132.132,0,0,1-.022-.074.18.18,0,0,0-.021-.088.1.1,0,0,1-.013-.058A.2.2,0,0,0,.5,16.526a.108.108,0,0,1-.011-.059v-.356a.367.367,0,0,0-.009-.044.257.257,0,0,1-.024-.1v-.48a.177.177,0,0,1,.02-.089.116.116,0,0,0,.013-.059c0-.031,0-.061,0-.092A.112.112,0,0,1,.5,15.2a.19.19,0,0,0,.024-.1A.215.215,0,0,1,.549,15c.039-.088.094-.171.131-.261a.788.788,0,0,0,.1-.172.181.181,0,0,1,.035-.049c.061-.063.123-.127.184-.187a.635.635,0,0,1,.084-.068,1.513,1.513,0,0,1,.184-.109.146.146,0,0,1,.059-.015h.094a.177.177,0,0,0,.072-.022.035.035,0,0,1,.031,0,.26.26,0,0,0,.133.022.187.187,0,0,1,.074.019,1.088,1.088,0,0,1,.151.107.5.5,0,0,1,.091.106.342.342,0,0,0,.046.061.36.36,0,0,1,.106.181.139.139,0,0,1,.031.1.074.074,0,0,0,.016.043.134.134,0,0,1,.017.059.167.167,0,0,0,.022.09.086.086,0,0,1,.011.043.215.215,0,0,0,.028.1.1.1,0,0,1,0,.076m19.2.807a.088.088,0,0,1-.029-.013l-.106-.087c-.075-.064-.151-.127-.225-.188a.291.291,0,0,0-.079-.045.733.733,0,0,0-.145-.054.044.044,0,0,0-.043.011.727.727,0,0,0-.055.055.09.09,0,0,0-.024.054c0,.015,0,.031,0,.046,0,.083,0,.166,0,.248a1.17,1.17,0,0,0,.032.26.527.527,0,0,1,.016.091c0,.031,0,.061.01.092a.972.972,0,0,1,.033.212.168.168,0,0,0,.009.046,1.346,1.346,0,0,1,.035.321c0,.061,0,.123,0,.187,0,.091,0,.183,0,.277,0,.128,0,.255,0,.385,0,.041,0,.083-.006.124a.184.184,0,0,1,0,.031c-.008.039-.02.078-.028.117a.781.781,0,0,1-.017.107.792.792,0,0,0-.03.136c0,.026-.009.05-.016.074a.439.439,0,0,0-.022.107.485.485,0,0,1-.02.09.731.731,0,0,0-.015.076.383.383,0,0,1-.022.1.156.156,0,0,0-.009.044.442.442,0,0,1-.053.176c-.1.22-.2.438-.3.658a2.231,2.231,0,0,1-.151.288c-.113.189-.225.379-.338.569a2.448,2.448,0,0,1-.178.254c-.112.135-.216.276-.323.414-.02.024-.038.048-.057.072-.107.124-.217.249-.33.367-.093.1-.182.2-.269.3l-.147.16c-.138.144-.277.291-.415.435-.1.1-.192.2-.288.3-.018.019-.037.037-.053.057a.051.051,0,0,0-.013.057,2.683,2.683,0,0,0,.187.371c.116.188.23.379.345.566.161.265.32.529.48.792.135.225.265.454.4.682.045.079.089.16.135.241a.294.294,0,0,1,.037.085c.008.046.033.086.039.133s.033.086.038.133c.03.092.058.186.094.276a1.325,1.325,0,0,1,.068.2.992.992,0,0,1,.024.121.757.757,0,0,0,.015.092c.007.03.016.058.02.089a.889.889,0,0,1,.008.293c-.006.05-.015.1-.017.154a.472.472,0,0,1-.011.076c-.006.035-.011.07-.019.1a.35.35,0,0,1-.02.059c-.028.059-.064.116-.1.172a.217.217,0,0,1-.028.038,1.3,1.3,0,0,1-.251.227c-.14.085-.28.176-.42.261-.227.142-.453.284-.681.424a.118.118,0,0,1-.026.018c-.286.174-.566.354-.851.531-.2.121-.393.245-.59.367-.26.164-.523.328-.785.49l-1.2.755-1.048.651-.9.566-.065.039a.358.358,0,0,1-.127.054c-.024,0-.048.018-.072.024a.314.314,0,0,1-.061,0,.061.061,0,0,1-.054-.024.073.073,0,0,0-.033-.031,1.114,1.114,0,0,1-.221-.138,1.242,1.242,0,0,0-.2-.138,4.086,4.086,0,0,1-.4-.258c-.054-.039-.11-.076-.166-.109-.112-.065-.219-.138-.328-.2a.7.7,0,0,1-.076-.053,3.174,3.174,0,0,0-.347-.228c-.07-.041-.14-.085-.208-.131a1.1,1.1,0,0,0-.124-.09.52.52,0,0,0-.09-.059,5.342,5.342,0,0,1-.466-.3c-.018-.013-.035-.024-.053-.035-.109-.063-.214-.14-.326-.2-.039-.021-.079-.048-.118-.072a.192.192,0,0,1-.039-.027,2.179,2.179,0,0,0-.332-.218,2,2,0,0,1-.258-.171,1.589,1.589,0,0,0-.191-.129c-.089-.05-.175-.1-.262-.161a2.29,2.29,0,0,1-.255-.171c-.075-.045-.145-.1-.221-.139-.059-.031-.112-.072-.17-.1a.479.479,0,0,1-.1-.07,2.463,2.463,0,0,0-.3-.192,2.217,2.217,0,0,1-.308-.2c-.09-.061-.181-.117-.273-.175-.039-.024-.079-.048-.116-.072-.017-.01-.035-.024-.053-.032a.694.694,0,0,1-.212-.153,2.716,2.716,0,0,0-.24-.193c-.016-.013-.033-.024-.049-.037a.275.275,0,0,1-.042-.044c-.039-.054-.078-.109-.113-.166a.631.631,0,0,1-.056-.091.364.364,0,0,1-.019-.074.114.114,0,0,0-.009-.046.209.209,0,0,1-.024-.1.1.1,0,0,0-.009-.044.209.209,0,0,1-.024-.12v-.632a.193.193,0,0,1,.017-.091.206.206,0,0,0,.016-.09c0-.1,0-.195,0-.293a.228.228,0,0,1,.022-.089.4.4,0,0,0,.02-.072.187.187,0,0,0,.028-.1.2.2,0,0,1,.015-.044.153.153,0,0,0,.018-.058.142.142,0,0,1,.019-.057c.007-.009.016-.018.016-.026a.359.359,0,0,1,.04-.117.422.422,0,0,1,.076-.2,1.706,1.706,0,0,0,.083-.181c.013-.028.026-.057.037-.086.022-.052.053-.1.074-.15a1.186,1.186,0,0,1,.07-.155c0-.031.026-.055.037-.083s.024-.046.038-.069c.076-.127.138-.262.206-.4a.3.3,0,0,0,.039-.1.351.351,0,0,1,.024-.057c.009-.035.039-.061.043-.1a.821.821,0,0,0,.062-.107c.019-.031.031-.066.047-.1s.028-.077.054-.112a.891.891,0,0,1,.044-.1.859.859,0,0,0,.037-.1.12.12,0,0,1,.014-.028.9.9,0,0,0,.043-.1.279.279,0,0,1,.028-.085.306.306,0,0,1,.042-.117.253.253,0,0,1,.038-.1.048.048,0,0,0,.009-.03.12.12,0,0,1,.031-.069A.385.385,0,0,0,6.9,22.72a.075.075,0,0,0-.011-.087c-.05-.043-.1-.092-.142-.139a.688.688,0,0,1-.117-.145c-.045-.054-.091-.109-.139-.161s-.111-.135-.175-.2a.274.274,0,0,1-.048-.061.805.805,0,0,0-.107-.128A1.348,1.348,0,0,1,6,21.614c-.021-.028-.048-.054-.072-.08a.685.685,0,0,1-.109-.129.552.552,0,0,0-.112-.127c-.026-.024-.052-.05-.076-.076a.23.23,0,0,1-.049-.061.741.741,0,0,0-.113-.145c-.068-.065-.125-.138-.184-.207a.519.519,0,0,1-.07-.1c-.021-.042-.045-.082-.068-.121a.854.854,0,0,0-.1-.157.953.953,0,0,0-.1-.171c-.035-.05-.063-.106-.1-.153a.568.568,0,0,1-.048-.079.325.325,0,0,1-.02-.041.961.961,0,0,1-.1-.191,1.092,1.092,0,0,0-.1-.2.485.485,0,0,0-.042-.083c-.038-.094-.092-.181-.129-.277a.115.115,0,0,1-.015-.027.614.614,0,0,0-.068-.172c-.013-.026-.007-.061-.027-.087a.147.147,0,0,1-.015-.074.118.118,0,0,0-.007-.028c-.009-.024-.021-.048-.028-.072a.428.428,0,0,0-.021-.072.115.115,0,0,1-.018-.058.169.169,0,0,0-.033-.086.184.184,0,0,1-.03-.085.068.068,0,0,0-.007-.031A.29.29,0,0,1,4.1,18.3c0-.013-.011-.026-.017-.041a.072.072,0,0,1-.009-.028.293.293,0,0,0-.028-.119.1.1,0,0,1-.009-.045v-.2a.115.115,0,0,0-.01-.059A.228.228,0,0,1,4,17.683v-.217a.172.172,0,0,0-.022-.087.145.145,0,0,1-.016-.074c0-.083,0-.166,0-.247a.174.174,0,0,0-.018-.075.114.114,0,0,1-.013-.043.768.768,0,0,1,0-.17.1.1,0,0,1,.013-.044.208.208,0,0,0,.018-.09c0-.026,0-.05,0-.076a.111.111,0,0,1,.018-.059A.142.142,0,0,0,4,16.425v-.091a.132.132,0,0,1,.016-.059.187.187,0,0,0,.019-.089c0-.031,0-.061,0-.092a.052.052,0,0,1,.009-.031.181.181,0,0,0,.022-.1c0-.027,0-.053,0-.077a.143.143,0,0,1,.011-.046.142.142,0,0,0,.02-.072c0-.031,0-.062,0-.095a.133.133,0,0,1,.02-.072.144.144,0,0,0,.01-.106.037.037,0,0,0-.013-.026.149.149,0,0,0-.1-.042.2.2,0,0,0-.118.022.114.114,0,0,1-.046.013.116.116,0,0,0-.065.035l-.033.033c-.046.061-.109.109-.151.174a.376.376,0,0,1-.072.081c-.043.035-.085.072-.129.11a.061.061,0,0,1-.028.006c-.014,0-.035-.013-.035-.024s0-.052,0-.076v-.14a.073.073,0,0,1,.011-.043.254.254,0,0,0,.033-.134.121.121,0,0,1,.02-.059,1.738,1.738,0,0,0,.073-.166.324.324,0,0,1,.031-.087c.009-.025.016-.049.027-.072a.5.5,0,0,0,.02-.075c.026-.028.017-.07.035-.1s.026-.078.046-.115.016-.07.039-.1a.309.309,0,0,1,.046-.114.448.448,0,0,1,.039-.116.243.243,0,0,1,.024-.055.21.21,0,0,0,.028-.054,1.91,1.91,0,0,1,.09-.18.075.075,0,0,1,.027-.036c.031-.029.036-.075.067-.1a.364.364,0,0,0,.065-.1.528.528,0,0,1,.062-.089c.02-.023.024-.055.047-.077a.492.492,0,0,0,.064-.087c.018-.025.039-.049.057-.072s.035-.05.055-.077a.481.481,0,0,1,.037-.047.6.6,0,0,0,.087-.128c.026-.036.068-.061.089-.1a.238.238,0,0,1,.051-.057c.019-.017.039-.035.059-.05a.414.414,0,0,0,.1-.094.46.46,0,0,1,.092-.081c.1-.068.185-.147.284-.212a1.667,1.667,0,0,1,.182-.143.083.083,0,0,0,.052-.085.18.18,0,0,1,.013-.061.281.281,0,0,0,.026-.134c0-.113,0-.227,0-.341a.072.072,0,0,0-.031-.05.36.36,0,0,1-.042-.023c-.046-.039-.094-.08-.142-.117s-.086-.09-.131-.132c-.007,0-.012-.016-.018-.024v-.013a.231.231,0,0,1,.151.006.2.2,0,0,0,.089.022.156.156,0,0,1,.1.024.153.153,0,0,0,.043.013.182.182,0,0,1,.075.02.123.123,0,0,0,.058.017.123.123,0,0,1,.06.015.17.17,0,0,0,.074.02.111.111,0,0,1,.057.017.108.108,0,0,0,.058.016.117.117,0,0,1,.059.017.122.122,0,0,0,.044.016A.141.141,0,0,1,6,11.878a.145.145,0,0,0,.044.013.163.163,0,0,1,.044.013c.052.032.115.044.166.081a.372.372,0,0,1,.087.028c.033.017.07.013.1.028a.238.238,0,0,0,.087.028c.022,0,.037.016.056.022s.06.009.088.024.048.017.07.031.057.024.085.038a2.761,2.761,0,0,1,.3.159.307.307,0,0,0,.1.039c.024,0,.048.022.072.026a.315.315,0,0,1,.087.028.03.03,0,0,0,.028,0c.033-.013.065-.03.1-.046a.238.238,0,0,0,.131-.123.245.245,0,0,1,.04-.045A.038.038,0,0,0,7.7,12.2a.778.778,0,0,0,0-.154c0-.024-.02-.049-.016-.075,0-.01.012-.015.02-.017a.036.036,0,0,1,.016,0c.075.035.148.07.221.106s.135.07.206.106c.092.046.176.1.267.154a1,1,0,0,0,.236.143c.139.072.275.158.415.232a1.342,1.342,0,0,0,.166.109c.108.063.214.124.324.181a.954.954,0,0,1,.143.091,2.277,2.277,0,0,0,.288.206c.035.023.068.046.1.069a1.028,1.028,0,0,1,.111.081,1.37,1.37,0,0,1,.112.083,1.153,1.153,0,0,0,.15.107c.046.031.095.061.138.1a.825.825,0,0,1,.128.085,1.186,1.186,0,0,1,.124.094c.076.062.159.112.238.169.026.018.053.033.076.053.07.053.14.1.208.16s.146.113.221.169.143.1.212.153l.013.011a.522.522,0,0,0,.091.08c.042.023.072.057.112.083a.9.9,0,0,1,.1.075.667.667,0,0,1,.094.078.147.147,0,0,0,.123.05c.022,0,.042,0,.061,0a.1.1,0,0,0,.046-.007c.063-.02.127-.039.192-.057a.169.169,0,0,0,.053-.031l.23-.184c.132-.106.266-.21.4-.317.027-.017.053-.035.077-.053.328-.213.654-.431.979-.644s.628-.414.942-.619c.06-.039.121-.076.184-.114l.719-.419a1.505,1.505,0,0,1,.136-.072c.249-.122.5-.243.75-.363a.227.227,0,0,1,.057-.024.066.066,0,0,1,.072.015.07.07,0,0,1,.018.055c-.006.015-.011.03-.018.043-.021.053-.043.1-.065.155a.3.3,0,0,0-.017.044.165.165,0,0,0,.041.184.043.043,0,0,0,.027.017c.028.011.057.02.087.029a.1.1,0,0,0,.031,0A.266.266,0,0,1,17.4,12.6a.474.474,0,0,0,.206-.059l.4-.192.111-.054q.2-.095.414-.17c.139-.05.277-.107.417-.158a.755.755,0,0,1,.09-.024,1.614,1.614,0,0,1,.18-.044,1.051,1.051,0,0,1,.164-.046c.072-.024.148-.042.221-.063s.132-.031.192-.053a.341.341,0,0,1,.169-.011l.013.006a.039.039,0,0,1,.015.053c-.007.007-.013.017-.02.024-.05.044-.1.09-.151.132-.124.1-.239.21-.361.317a.376.376,0,0,0-.085.107c-.016.033-.035.064-.053.095a.141.141,0,0,0-.013.09.463.463,0,0,0,.009.046.137.137,0,0,0,.066.1c.026.017.052.032.078.048.107.064.213.124.319.188a1.007,1.007,0,0,1,.128.087c.083.068.168.136.254.2a.424.424,0,0,1,.083.089c.027.038.055.075.081.112.109.15.213.3.324.453a1.856,1.856,0,0,1,.17.276c.09.176.183.356.276.532a1.338,1.338,0,0,1,.087.215c.038.122.08.243.122.365.02.063.04.127.061.19s.037.118.057.175a.16.16,0,0,1,.011.031,1.486,1.486,0,0,0,.044.179.2.2,0,0,1,0,.077c0,.013-.023.026-.033.019m3.072.274c0,.114-.007.221-.011.33a1.383,1.383,0,0,1-.022.138.445.445,0,0,1-.026.133.118.118,0,0,0-.009.046.821.821,0,0,1-.052.225c-.072.234-.15.47-.224.7-.009.024-.02.049-.026.072a.39.39,0,0,1-.053.111c-.054.081-.107.161-.164.243s-.1.146-.138.221-.075.124-.112.186a.476.476,0,0,1-.111.127c-.046.035-.087.072-.131.107a.157.157,0,0,1-.147.022.078.078,0,0,1-.046-.039,2.142,2.142,0,0,1-.094-.261c0-.079-.042-.149-.046-.224l0-.016a.875.875,0,0,1-.033-.121.709.709,0,0,0-.028-.117.288.288,0,0,1-.011-.062.437.437,0,0,0-.017-.073c-.024-.064-.024-.132-.046-.195,0-.016,0-.032-.006-.046,0-.068,0-.133,0-.2a.08.08,0,0,1,.022-.054l.076-.079q.138-.134.276-.269a.152.152,0,0,0,.044-.08.487.487,0,0,1,.015-.058.406.406,0,0,0,.022-.136,1.073,1.073,0,0,1,.02-.169.849.849,0,0,0,.017-.184v-.308a.131.131,0,0,0-.015-.059l-.053-.1a1.251,1.251,0,0,1-.112-.269.141.141,0,0,1,.033-.144,1.017,1.017,0,0,1,.112-.106.142.142,0,0,1,.039-.021c.025-.013.049-.022.07-.033a.145.145,0,0,0,.057-.052c.016-.027.031-.055.044-.081a.123.123,0,0,0,.011-.09.083.083,0,0,0-.028-.053.488.488,0,0,0-.118-.072.2.2,0,0,0-.061-.016c-.07,0-.143-.006-.213-.011a.109.109,0,0,0-.031,0c-.039.011-.08.022-.119.035a.362.362,0,0,0-.157.095,1.15,1.15,0,0,1-.183.161.434.434,0,0,1-.042.022c-.011,0-.033-.013-.035-.024a.614.614,0,0,1,0-.107.624.624,0,0,1,.059-.254c.044-.109.091-.217.138-.327a.329.329,0,0,1,.048-.078,1.056,1.056,0,0,1,.087-.107.2.2,0,0,1,.046-.039c.048-.028.1-.059.149-.083a1.5,1.5,0,0,1,.14-.064.112.112,0,0,1,.046-.011c.065,0,.133,0,.2,0a.128.128,0,0,1,.058.015c.091.053.18.1.267.155a.361.361,0,0,1,.072.057l.14.145a.41.41,0,0,1,.068.1,5.683,5.683,0,0,1,.221.525.315.315,0,0,1,.015.043,1.13,1.13,0,0,0,.033.135.729.729,0,0,0,.039.18.251.251,0,0,1,0,.031.309.309,0,0,0,.018.089.46.46,0,0,1,.022.153c0,.092,0,.184,0,.272"/>
    <path d="M5.729,44.394a3.375,3.375,0,0,0,1.837-5,3.441,3.441,0,0,0-.383-.5A3.383,3.383,0,0,0,4.7,37.806H1.584a.253.253,0,0,0-.253.254v9.866a.254.254,0,0,0,.253.254H2.859a.255.255,0,0,0,.254-.254V39.588H4.7a1.59,1.59,0,0,1,1.589,1.682,1.642,1.642,0,0,1-1.611,1.5h-.1a.256.256,0,0,0-.213.115l-.912,1.388a.253.253,0,0,0,.026.312L6.726,48.1a.251.251,0,0,0,.185.082h1.73a.258.258,0,0,0,.182-.073.254.254,0,0,0,.008-.354Z"/>
    <path d="M24.233,46.4H22.96a.255.255,0,0,0-.254.254v1.273a.255.255,0,0,0,.254.255h1.273a.255.255,0,0,0,.254-.255V46.652a.254.254,0,0,0-.254-.254"/>
    <path d="M22.458,39.588a.255.255,0,0,0,.254-.254V38.061a.255.255,0,0,0-.254-.255H17.175a.255.255,0,0,0-.254.255v9.864a.254.254,0,0,0,.254.254h1.273a.254.254,0,0,0,.254-.254V44.552h1.275a.254.254,0,0,0,.212-.114l.837-1.273a.255.255,0,0,0-.213-.395H18.7V39.588Z"/>
    <path d="M15.394,37.806H10.111a.255.255,0,0,0-.254.254v9.865a.255.255,0,0,0,.254.254h5.283a.255.255,0,0,0,.254-.254V46.652a.254.254,0,0,0-.254-.254H11.638V44.552h1.285a.251.251,0,0,0,.213-.114l.836-1.272a.254.254,0,0,0-.212-.395H11.638V39.589h3.756a.255.255,0,0,0,.254-.255V38.061a.255.255,0,0,0-.254-.254"/>
  </g>
</svg>
