<svg xmlns="http://www.w3.org/2000/svg" width="74.502" height="6.249" viewBox="0 0 74.502 6.249">
  <title>RefWebsite_logo</title>
  <g>
    <path d="M2.544,3.979A1.951,1.951,0,0,0,1.951.168H.146A.147.147,0,0,0,0,.315V6.022a.147.147,0,0,0,.146.147H.884a.147.147,0,0,0,.147-.147V1.2h.921a.92.92,0,0,1,.919.973.95.95,0,0,1-.932.868H1.879a.147.147,0,0,0-.123.066l-.528.8a.147.147,0,0,0,.015.181L3.12,6.122a.147.147,0,0,0,.108.047h1a.147.147,0,0,0,.11-.247Z"/>
    <path d="M12.221,1.2a.147.147,0,0,0,.147-.147V.315a.147.147,0,0,0-.147-.147H9.165a.147.147,0,0,0-.147.147V6.022a.147.147,0,0,0,.147.147H9.9a.147.147,0,0,0,.147-.147V4.07h.737A.147.147,0,0,0,10.909,4l.484-.736a.147.147,0,0,0-.123-.228H10.049V1.2Z"/>
    <path d="M8.135.168H5.079a.147.147,0,0,0-.147.147V6.022a.147.147,0,0,0,.147.147H8.135a.147.147,0,0,0,.147-.147V5.285a.147.147,0,0,0-.147-.147H5.962V4.07h.743A.147.147,0,0,0,6.828,4l.484-.736a.147.147,0,0,0-.123-.228H5.962V1.2H8.135a.147.147,0,0,0,.147-.147V.315A.147.147,0,0,0,8.135.168Z"/>
    <g>
      <path d="M16.92,5.718a.117.117,0,0,1,.13.13v.173a.117.117,0,0,1-.13.13H13.865a.117.117,0,0,1-.13-.13V.228a.117.117,0,0,1,.13-.13h.2a.117.117,0,0,1,.13.13v5.49H16.92Z"/>
      <path d="M18.128.1h.2a.117.117,0,0,1,.13.13V6.021a.117.117,0,0,1-.13.13h-.2a.117.117,0,0,1-.13-.13V.228A.117.117,0,0,1,18.128.1Z"/>
      <path d="M21.694,6.15a.153.153,0,0,1-.149-.1L19.379.247C19.347.156,19.4.1,19.489.1H19.7a.146.146,0,0,1,.149.1l1.973,5.384L23.8.2a.146.146,0,0,1,.149-.1h.215c.091,0,.142.058.109.149l-2.165,5.8a.153.153,0,0,1-.149.1h-.264Z"/>
      <path d="M25.322.1h.2a.117.117,0,0,1,.13.13V6.021a.117.117,0,0,1-.13.13h-.2a.117.117,0,0,1-.13-.13V.228A.117.117,0,0,1,25.322.1Z"/>
      <path d="M30.772.1h.2a.116.116,0,0,1,.13.13V6.021a.116.116,0,0,1-.13.13H30.8a.163.163,0,0,1-.156-.085L27.616,1.015V6.021a.116.116,0,0,1-.13.13h-.2a.116.116,0,0,1-.13-.13V.228a.116.116,0,0,1,.13-.13h.17a.162.162,0,0,1,.156.085l3.032,5.051V.228A.116.116,0,0,1,30.772.1Z"/>
      <path d="M38.058,3.168a.116.116,0,0,1,.13.13V6.021a.116.116,0,0,1-.13.13h-.2a.116.116,0,0,1-.13-.13V5.084a2.577,2.577,0,0,1-2.317,1.165,3.069,3.069,0,0,1-3.153-3.124A3.069,3.069,0,0,1,35.381,0a2.929,2.929,0,0,1,2.752,1.793.1.1,0,0,1-.1.149H37.8a.161.161,0,0,1-.155-.1,2.445,2.445,0,0,0-2.261-1.4,2.613,2.613,0,0,0-2.663,2.68A2.613,2.613,0,0,0,35.41,5.8a2.086,2.086,0,0,0,2.317-1.873V3.6h-2.09a.116.116,0,0,1-.13-.13V3.3a.116.116,0,0,1,.13-.13h2.421Z"/>
      <path d="M44.1,5.989c.072.084.039.162-.071.162h-.265a.2.2,0,0,1-.162-.071L41.484,3.672H40.007V6.021a.117.117,0,0,1-.13.13h-.2a.117.117,0,0,1-.13-.13V.228a.117.117,0,0,1,.13-.13h1.945a1.787,1.787,0,0,1,.395,3.53L44.1,5.989ZM40.007,3.24h1.614a1.345,1.345,0,0,0,1.326-1.355A1.342,1.342,0,0,0,41.621.53H40.007Z"/>
      <path d="M49.471,6c.033.091-.006.149-.1.149h-.215a.153.153,0,0,1-.149-.1l-.551-1.438H45.425l-.551,1.438a.153.153,0,0,1-.149.1H44.51c-.1,0-.136-.059-.1-.149L46.657.2a.153.153,0,0,1,.149-.1h.264a.153.153,0,0,1,.149.1L49.471,6ZM48.286,4.176,46.938.66,45.591,4.176Z"/>
      <path d="M56.447.1a.1.1,0,0,1,.11.149L54.719,6.041a.139.139,0,0,1-.143.11h-.384a.139.139,0,0,1-.143-.11L53.029,2.828,52.01,6.041a.139.139,0,0,1-.143.11h-.384a.139.139,0,0,1-.143-.11L49.5.247A.1.1,0,0,1,49.611.1h.184a.139.139,0,0,1,.143.11l1.737,5.47L52.8,2.121,52.21.247A.1.1,0,0,1,52.32.1H52.5a.139.139,0,0,1,.143.11l1.737,5.47L56.12.208A.139.139,0,0,1,56.264.1h.184Z"/>
      <path d="M56.69,6.021V5.588a.117.117,0,0,1,.13-.13h.317a.117.117,0,0,1,.13.13v.432a.117.117,0,0,1-.13.13h-.317A.117.117,0,0,1,56.69,6.021Z"/>
      <path d="M62.6,4.825c.091,0,.142.058.1.149a2.085,2.085,0,0,1-1.994,1.275,2.217,2.217,0,0,1-2.268-2.26,2.217,2.217,0,0,1,2.268-2.26A2.091,2.091,0,0,1,62.707,3c.038.091-.013.149-.1.149h-.2a.16.16,0,0,1-.155-.1,1.657,1.657,0,0,0-1.54-.905,1.806,1.806,0,0,0-1.83,1.839,1.806,1.806,0,0,0,1.83,1.839,1.66,1.66,0,0,0,1.54-.905.16.16,0,0,1,.155-.1h.2Z"/>
      <path d="M63.425,3.989a2.268,2.268,0,1,1,2.268,2.26A2.242,2.242,0,0,1,63.425,3.989Zm4.1,0a1.83,1.83,0,1,0-3.66,0,1.83,1.83,0,1,0,3.66,0Z"/>
      <path d="M73.159,1.729A1.324,1.324,0,0,1,74.5,3.208V6.021a.117.117,0,0,1-.13.13h-.179a.117.117,0,0,1-.13-.13V3.208c0-.738-.421-1.058-.945-1.058s-1.15.369-1.15,1.389V6.021a.117.117,0,0,1-.13.13H71.66a.117.117,0,0,1-.13-.13V3.208c0-.738-.421-1.058-.945-1.058s-1.15.369-1.15,1.389V6.021a.117.117,0,0,1-.13.13h-.179a.117.117,0,0,1-.13-.13V1.957a.117.117,0,0,1,.13-.13h.179a.117.117,0,0,1,.13.13v.477a1.359,1.359,0,0,1,1.219-.7,1.241,1.241,0,0,1,1.2.81,1.391,1.391,0,0,1,1.3-.81Z"/>
    </g>
    <rect x="56.568" y="5.138" width="1.031" height="1.031" rx="0.147" ry="0.147"/>
  </g>
</svg>
