<svg xmlns="http://www.w3.org/2000/svg" width="324.8" height="447.856" viewBox="0 0 324.8 447.856">
  <title>Asset 1</title>
  <g>
    <g>
      <polygon points="141.276 144.495 141.276 144.502 45.215 290.587 0.003 290.587 0.003 289.008 95.025 144.502 95.025 144.495 0.003 0.012 0.003 0.004 46.247 0.004 141.276 144.495" fill="#e7b329"/>
      <polygon points="187.527 144.502 164.406 179.659 91.458 290.587 45.215 290.587 141.276 144.502 141.276 144.495 46.247 0.004 92.506 0.004 164.406 109.338 187.527 144.502"/>
      <polygon points="324.8 142.14 324.8 146.86 303.23 179.66 230.62 290.08 230.28 290.59 184.04 290.59 184.38 290.08 280.1 144.5 280.1 144.49 185.07 0 231.32 0 303.23 109.34 324.8 142.14" fill="#e7b329"/>
      <polygon points="280.068 144.502 256.946 179.659 183.999 290.587 137.755 290.587 233.817 144.502 233.817 144.495 138.787 0.004 185.039 0.004 256.946 109.338 280.068 144.502"/>
      <polygon points="233.786 144.502 210.665 179.659 137.717 290.587 91.474 290.587 187.535 144.502 187.535 144.495 92.506 0.004 138.757 0.004 210.665 109.338 233.786 144.502" fill="#e7b329"/>
      <polygon points="230.65 290.08 324.8 146.89 324.8 217.21 276.89 290.08 276.55 290.59 230.31 290.59 230.65 290.08"/>
      <polygon points="277.59 0 324.8 71.79 324.8 142.1 231.34 0 277.59 0"/>
      <polygon points="276.89 290.08 324.8 217.21 324.8 287.52 323.12 290.08 322.78 290.59 276.55 290.59 276.89 290.08" fill="#e7b329"/>
      <polygon points="323.84 0 324.8 1.46 324.8 71.79 277.58 0 323.84 0" fill="#e7b329"/>
    </g>
    <rect width="324.8" height="290.08" fill="none"/>
    <g>
      <path fill="#fff" d="M87.783,357.576v11.847a2.42,2.42,0,0,1-2.653,2.653H53.3a2.42,2.42,0,0,1-2.653-2.653V312.839a2.42,2.42,0,0,1,2.653-2.653H65.681a2.42,2.42,0,0,1,2.653,2.653v42.085h16.8A2.42,2.42,0,0,1,87.783,357.576Z"/>
      <path fill="#fff" d="M94.852,310.186h12.378a2.42,2.42,0,0,1,2.653,2.653v56.584a2.42,2.42,0,0,1-2.653,2.653H94.852a2.42,2.42,0,0,1-2.653-2.653V312.839A2.42,2.42,0,0,1,94.852,310.186Z"/>
      <path fill="#fff" d="M131.983,369.865l-17.595-56.672c-.53-1.856.353-3.006,2.211-3.006h13.438a2.659,2.659,0,0,1,2.918,2.3l9.637,38.813,9.637-38.812a2.659,2.659,0,0,1,2.918-2.3h13.438c1.858,0,2.741,1.15,2.211,3.006L153.2,369.865a2.956,2.956,0,0,1-3.006,2.211H134.989A2.956,2.956,0,0,1,131.983,369.865Z"/>
      <path fill="#fff" d="M177.953,310.186h12.378a2.42,2.42,0,0,1,2.653,2.653v56.584a2.42,2.42,0,0,1-2.653,2.653H177.953a2.42,2.42,0,0,1-2.653-2.653V312.839A2.42,2.42,0,0,1,177.953,310.186Z"/>
      <path fill="#fff" d="M236.3,310.186h12.377a2.42,2.42,0,0,1,2.653,2.653v56.584a2.42,2.42,0,0,1-2.653,2.653h-9.371a3.369,3.369,0,0,1-3.184-1.768L219.5,342.9v26.524a2.42,2.42,0,0,1-2.653,2.653H204.473a2.42,2.42,0,0,1-2.653-2.653V312.839a2.42,2.42,0,0,1,2.653-2.653h9.372a3.369,3.369,0,0,1,3.183,1.768l16.622,27.409V312.839A2.42,2.42,0,0,1,236.3,310.186Z"/>
      <path fill="#fff" d="M318.607,337.77a2.42,2.42,0,0,1,2.653,2.653v29a2.419,2.419,0,0,1-2.653,2.653h-9.724a2.419,2.419,0,0,1-2.653-2.653v-2.228c-4.061,4.071-9.9,6.3-17.683,6.3-17.858,0-30.59-14.058-30.59-32.359s13.615-32.359,32.358-32.359c14.146,0,25.817,8.664,29.795,20.158.62,1.858-.353,3.007-2.21,3.007H304.461a4.061,4.061,0,0,1-3.271-1.591,14.2,14.2,0,0,0-10.7-4.245c-8.931,0-14.854,6.455-14.854,15.031,0,9.461,5.923,15.914,14.676,15.914,5.706,0,9.457-1.817,11.611-5.127h-8.074a2.42,2.42,0,0,1-2.653-2.653v-8.841a2.42,2.42,0,0,1,2.653-2.653h24.755Z"/>
      <path fill="#fff" d="M168.848,447.768H155.233a3.381,3.381,0,0,1-3.184-1.68L140.18,428.317h-3.248v16.8a2.42,2.42,0,0,1-2.653,2.653H121.9a2.42,2.42,0,0,1-2.653-2.653V388.531a2.42,2.42,0,0,1,2.653-2.653H143.12c13.35,0,23.43,8.4,23.43,21.75a19.4,19.4,0,0,1-9.747,17.2l13.724,19.761C171.766,446.441,170.971,447.768,168.848,447.768Zm-31.916-45.621v10.785h6.188c3.536.088,5.747-1.68,5.747-5.3s-2.211-5.482-5.747-5.482Z"/>
      <path fill="#fff" d="M227.018,447.856H213.579a2.858,2.858,0,0,1-3.006-2.3l-1.52-5.658H191.23l-1.521,5.658a2.857,2.857,0,0,1-3.006,2.3H173.265c-1.946,0-2.829-1.238-2.211-3.006l18.478-56.672a2.868,2.868,0,0,1,3.006-2.211h15.207a2.868,2.868,0,0,1,3.006,2.211l18.478,56.672C229.847,446.618,228.963,447.856,227.018,447.856Zm-21.769-22.1-5.109-19.008-5.11,19.008Z"/>
      <path fill="#fff" d="M305.347,388.973l-16,56.672a2.7,2.7,0,0,1-2.918,2.211H274.491a2.7,2.7,0,0,1-2.918-2.211l-6.016-21.787-6.008,21.787a2.7,2.7,0,0,1-2.918,2.211H244.7a2.7,2.7,0,0,1-2.918-2.211l-16-56.672c-.53-1.768.353-3.006,2.211-3.006H240.9a2.818,2.818,0,0,1,3.006,2.3l8.311,32.8,6.378-22.442-2.666-9.652c-.53-1.768.443-3.006,2.3-3.006h11.14a2.659,2.659,0,0,1,2.918,2.3l7.515,30.413,7.516-30.413a2.659,2.659,0,0,1,2.918-2.3h12.908C304.994,385.967,305.878,387.2,305.347,388.973Z"/>
      <path fill="#fff" d="M302.689,445.2V432.825a2.419,2.419,0,0,1,2.653-2.651H317.72a2.419,2.419,0,0,1,2.653,2.651V445.2a2.42,2.42,0,0,1-2.653,2.653H305.342A2.42,2.42,0,0,1,302.689,445.2Z"/>
    </g>
  </g>
</svg>
