<svg xmlns="http://www.w3.org/2000/svg" xmlns:xlink="http://www.w3.org/1999/xlink" width="28.723" height="30.713" viewBox="0 0 28.723 30.713">
  <defs>
    <clipPath id="a">
      <rect width="22.273" height="19.892" fill="none"/>
    </clipPath>
  </defs>
  <title>RefLivingRaw_logo</title>
  <g>
    <g clip-path="url(#a)">
      <g>
        <polygon points="9.688 9.908 9.688 9.909 3.1 19.927 0 19.927 0 19.818 6.516 9.909 6.516 9.908 0 0.001 0 0 3.171 0 9.688 9.908" fill="#e7b329"/>
        <polygon points="12.859 9.909 11.274 12.32 6.272 19.927 3.1 19.927 9.688 9.909 9.688 9.908 3.171 0 6.343 0 11.274 7.498 12.859 9.909"/>
        <polygon points="22.379 9.909 20.794 12.32 15.791 19.927 12.62 19.927 19.208 9.909 19.208 9.908 12.691 0 15.863 0 20.794 7.498 22.379 9.909" fill="#e7b329"/>
        <polygon points="19.205 9.909 17.62 12.32 12.617 19.927 9.446 19.927 16.034 9.909 16.034 9.908 9.517 0 12.689 0 17.62 7.498 19.205 9.909"/>
        <polygon points="16.032 9.909 14.446 12.32 9.444 19.927 6.273 19.927 12.86 9.909 12.86 9.908 6.343 0 9.515 0 14.446 7.498 16.032 9.909" fill="#e7b329"/>
        <polygon points="25.552 9.909 23.966 12.32 18.964 19.927 15.793 19.927 22.381 9.909 22.381 9.908 15.864 0 19.036 0 23.966 7.498 25.552 9.909"/>
        <polygon points="28.723 9.909 27.137 12.32 22.135 19.927 18.964 19.927 23.966 12.32 25.551 9.909 25.551 9.908 19.035 0 22.207 0 27.137 7.498 28.723 9.909" fill="#e7b329"/>
      </g>
    </g>
    <g>
      <path d="M6.02,24.522v.812a.166.166,0,0,1-.182.182H3.655a.166.166,0,0,1-.182-.182v-3.88a.166.166,0,0,1,.182-.182H4.5a.166.166,0,0,1,.182.182V24.34H5.838A.166.166,0,0,1,6.02,24.522Z"/>
      <path d="M6.5,21.272h.849a.166.166,0,0,1,.182.182v3.88a.166.166,0,0,1-.182.182H6.5a.166.166,0,0,1-.182-.182v-3.88A.166.166,0,0,1,6.5,21.272Z"/>
      <path d="M9.051,25.364,7.844,21.478c-.036-.127.024-.206.152-.206h.922a.182.182,0,0,1,.2.158l.661,2.662.661-2.662a.182.182,0,0,1,.2-.158h.922c.127,0,.188.079.152.206l-1.206,3.886a.2.2,0,0,1-.206.152H9.257A.2.2,0,0,1,9.051,25.364Z"/>
      <path d="M12.2,21.272h.849a.166.166,0,0,1,.182.182v3.88a.166.166,0,0,1-.182.182H12.2a.166.166,0,0,1-.182-.182v-3.88A.166.166,0,0,1,12.2,21.272Z"/>
      <path d="M16.2,21.272h.849a.166.166,0,0,1,.182.182v3.88a.166.166,0,0,1-.182.182h-.643a.231.231,0,0,1-.218-.121l-1.14-1.879v1.819a.166.166,0,0,1-.182.182h-.849a.166.166,0,0,1-.182-.182v-3.88a.166.166,0,0,1,.182-.182h.643a.231.231,0,0,1,.218.121l1.14,1.879V21.454A.166.166,0,0,1,16.2,21.272Z"/>
      <path d="M21.848,23.164a.166.166,0,0,1,.182.182v1.989a.166.166,0,0,1-.182.182h-.667A.166.166,0,0,1,21,25.334v-.153a1.638,1.638,0,0,1-1.213.432,2.1,2.1,0,0,1-2.1-2.219,2.164,2.164,0,0,1,2.219-2.219,2.137,2.137,0,0,1,2.043,1.382c.042.127-.024.206-.152.206h-.922a.278.278,0,0,1-.224-.109.973.973,0,0,0-.734-.291A.984.984,0,0,0,18.9,23.394a1,1,0,0,0,1.006,1.091.873.873,0,0,0,.8-.352h-.554a.166.166,0,0,1-.182-.182v-.606a.166.166,0,0,1,.182-.182h1.7Z"/>
      <path d="M11.579,30.707h-.934a.232.232,0,0,1-.218-.115l-.814-1.219H9.39v1.152a.166.166,0,0,1-.182.182H8.359a.166.166,0,0,1-.182-.182v-3.88a.166.166,0,0,1,.182-.182H9.814a1.48,1.48,0,0,1,1.607,1.491,1.33,1.33,0,0,1-.668,1.179l.941,1.355C11.779,30.616,11.724,30.707,11.579,30.707ZM9.39,27.578v.74h.424a.339.339,0,0,0,.394-.364.35.35,0,0,0-.394-.376Z"/>
      <path d="M15.719,30.507c.042.121-.018.206-.152.206h-.922a.2.2,0,0,1-.206-.158l-.1-.388H13.114l-.1.388a.2.2,0,0,1-.206.158h-.922c-.133,0-.194-.085-.152-.206L13,26.62a.2.2,0,0,1,.206-.152h1.043a.2.2,0,0,1,.206.152l1.267,3.886ZM14.075,29.2l-.35-1.3-.35,1.3Z"/>
      <path d="M20.939,26.675l-1.1,3.886a.185.185,0,0,1-.2.152h-.818a.185.185,0,0,1-.2-.152l-.413-1.494L17.8,30.561a.185.185,0,0,1-.2.152H16.78a.185.185,0,0,1-.2-.152l-1.1-3.886a.145.145,0,0,1,.152-.206h.885a.193.193,0,0,1,.206.158l.57,2.249.437-1.539-.183-.662a.148.148,0,0,1,.158-.206h.764a.182.182,0,0,1,.2.158l.515,2.086.515-2.086a.182.182,0,0,1,.2-.158h.885A.145.145,0,0,1,20.939,26.675Z"/>
      <path d="M20.757,30.531v-.849a.166.166,0,0,1,.182-.182h.849a.166.166,0,0,1,.182.182v.849a.166.166,0,0,1-.182.182h-.849A.166.166,0,0,1,20.757,30.531Z"/>
    </g>
  </g>
</svg>
