<svg xmlns="http://www.w3.org/2000/svg" width="42.761" height="8.341" viewBox="0 0 42.761 8.341">
  <title>RefSports_logo</title>
  <g>
    <path d="M26.275,5.253a2.635,2.635,0,0,0-.8-5.145H23.038a.2.2,0,0,0-.2.2V8.013a.2.2,0,0,0,.2.2h1a.2.2,0,0,0,.2-.2V1.5h1.243a1.242,1.242,0,0,1,1.241,1.314,1.283,1.283,0,0,1-1.259,1.172h-.079a.2.2,0,0,0-.166.089L24.5,5.159a.2.2,0,0,0,.02.244l2.534,2.744a.2.2,0,0,0,.145.064H28.55a.2.2,0,0,0,.148-.333Z"/>
    <rect x="41.369" y="6.819" width="1.391" height="1.391" rx="0.199" ry="0.199"/>
    <g>
      <path d="M2.794,8.341c-1.5,0-2.7-.789-2.793-2.185a.15.15,0,0,1,.165-.181H.443a.163.163,0,0,1,.173.173c.089,1,.923,1.6,2.178,1.6,1.123,0,1.931-.619,1.931-1.535,0-1.016-.943-1.389-1.962-1.77C1.543,3.986.216,3.59.216,2.062A2.195,2.195,0,0,1,2.628,0,2.293,2.293,0,0,1,5.095,2.032a.15.15,0,0,1-.165.181H4.652a.162.162,0,0,1-.173-.165A1.688,1.688,0,0,0,2.628.593c-1.054,0-1.8.6-1.8,1.47,0,1.043.931,1.393,1.97,1.785,1.212.469,2.539.9,2.539,2.366A2.3,2.3,0,0,1,2.794,8.341Z"/>
      <path d="M12,2.516A2.392,2.392,0,0,1,9.611,4.9H7.457V8.037a.156.156,0,0,1-.173.173H7.014a.156.156,0,0,1-.173-.173V.3A.156.156,0,0,1,7.014.131h2.6A2.388,2.388,0,0,1,12,2.516ZM9.611,4.325a1.8,1.8,0,0,0,1.77-1.808A1.791,1.791,0,0,0,9.611.708H7.457V4.325H9.611Z"/>
      <path d="M12.97,4.171a4.17,4.17,0,1,1,8.341,0,4.17,4.17,0,1,1-8.341,0Zm7.725,0a3.555,3.555,0,1,0-7.11,0,3.555,3.555,0,1,0,7.11,0Z"/>
    </g>
    <g>
      <path d="M34.133.3V.535a.156.156,0,0,1-.173.173H31.825V8.037a.156.156,0,0,1-.173.173h-.269a.156.156,0,0,1-.173-.173V.708H29.074A.156.156,0,0,1,28.9.535V.3a.156.156,0,0,1,.173-.173H33.96A.156.156,0,0,1,34.133.3Z"/>
      <path d="M37.53,8.341c-1.5,0-2.7-.789-2.793-2.185a.15.15,0,0,1,.165-.181h.277a.163.163,0,0,1,.173.173c.089,1,.923,1.6,2.178,1.6,1.123,0,1.931-.619,1.931-1.535,0-1.016-.943-1.389-1.962-1.77-1.22-.458-2.547-.854-2.547-2.381A2.195,2.195,0,0,1,37.365,0a2.293,2.293,0,0,1,2.466,2.031.15.15,0,0,1-.165.181h-.277a.162.162,0,0,1-.173-.165A1.688,1.688,0,0,0,37.365.593c-1.054,0-1.8.6-1.8,1.47,0,1.043.931,1.393,1.97,1.785,1.212.469,2.539.9,2.539,2.366A2.3,2.3,0,0,1,37.53,8.341Z"/>
    </g>
  </g>
</svg>
